<svg id="Graphic" xmlns="http://www.w3.org/2000/svg" viewBox="0 0 1258.4 1206.17"><defs><style>.cls-1{fill:#a8d0e6;}.cls-1,.cls-10,.cls-11,.cls-12,.cls-13,.cls-14,.cls-15,.cls-16,.cls-17,.cls-18,.cls-19,.cls-2,.cls-20,.cls-21,.cls-22,.cls-23,.cls-24,.cls-25,.cls-26,.cls-27,.cls-28,.cls-29,.cls-3,.cls-30,.cls-31,.cls-32,.cls-33,.cls-34,.cls-35,.cls-36,.cls-5,.cls-6,.cls-7,.cls-8,.cls-9{fill-rule:evenodd;}.cls-2{fill:#c3cfd1;}.cls-3{fill:#8fb4b4;}.cls-4{fill:#033;}.cls-5{fill:#e3ac66;}.cls-6{fill:#2c3235;}.cls-7{fill:#4c5f66;}.cls-8{fill:#749b9b;}.cls-9{fill:#c3d8d8;}.cls-10{fill:#dbeded;}.cls-11{fill:#9d8f58;}.cls-12{fill:#7c9155;}.cls-13{fill:#796b89;}.cls-14{fill:#a05c51;}.cls-15{fill:#fbde78;}.cls-16{fill:#bce273;}.cls-17{fill:#b89cd6;}.cls-18{fill:#ff7e6b;}.cls-19{fill:#d0dddd;}.cls-20{fill:#0071bc;}.cls-21{fill:#f18f6a;}.cls-22{fill:#e4efef;}.cls-23{fill:#fefefe;}.cls-24{fill:#b3b3b3;}.cls-25{fill:#f7486c;}.cls-26{fill:#f76c6c;}.cls-27{fill:#f9a219;}.cls-28{fill:#fc0;}.cls-29{fill:#ffac00;}.cls-30{fill:#fff;}.cls-31{fill:#ccc;}.cls-32{fill:#9cb9c0;}.cls-33{fill:#3d4d53;}.cls-34{fill:#abcbcb;}.cls-35{fill:#ffa600;}.cls-36{fill:#ffe479;}</style></defs><title>signup-image</title><path class="cls-1" d="M982.2,384.49C777,401.55,836.15,477.75,593.73,327.85s-416.39-117-423.61,107.61,315,710.74,745.24,847.8,591-337.19,478-607.9C1393.36,675.36,1242.67,362.83,982.2,384.49Z" transform="translate(-170 -217.41)"/><polygon class="cls-2" points="426.25 1006 808.32 843.46 978.34 941.66 596.31 1104.2 426.25 1006"/><path class="cls-3" d="M703.72,657.77c3.21-1.76,6.46,1.84,7.27,8s-1.19,12.54-4.45,14.3-6.46-1.84-7.28-8,1.2-12.58,4.46-14.29Z" transform="translate(-170 -217.41)"/><path class="cls-4" d="M701.92,654.43a7.8,7.8,0,0,1,2.57-.82,7.16,7.16,0,0,1,5,1.33,10.6,10.6,0,0,1,3.17,3.73,19.48,19.48,0,0,1,2,6.63,24.9,24.9,0,0,1-.86,10.36c-1.07,3.51-3,6.38-5.52,7.71a7,7,0,0,1-7.62-.48,10.56,10.56,0,0,1-3.17-3.72,18.64,18.64,0,0,1-2-6.63,25.15,25.15,0,0,1,.86-10.41c1.07-3.51,3-6.33,5.52-7.7Zm4.15,7.79a4.68,4.68,0,0,0-.73-1,6.19,6.19,0,0,0-1.75,3.17,18.22,18.22,0,0,0-.6,7.23,11.64,11.64,0,0,0,1.2,4,4.08,4.08,0,0,0,.73,1,6.15,6.15,0,0,0,1.75-3.16,17.62,17.62,0,0,0,.56-7.24,10.87,10.87,0,0,0-1.16-4Z" transform="translate(-170 -217.41)"/><polygon class="cls-2" points="43.24 997.87 319.09 880.49 489.1 978.69 213.3 1096.07 43.24 997.87"/><polygon class="cls-5" points="213.3 650.62 845.1 381.75 845.1 827.2 213.3 1096.07 213.3 650.62"/><path d="M382.06,864.44,1013.65,595.7a3.73,3.73,0,0,1,4.92,2,3.59,3.59,0,0,1,.3,1.45h0v445.45a3.7,3.7,0,0,1-2.57,3.55L384.75,1317a3.75,3.75,0,0,1-4.92-2,3.64,3.64,0,0,1-.3-1.46h0V868a3.78,3.78,0,0,1,2.57-3.59Zm629.27-259.58L387.07,870.52v437.27l624.26-265.66Z" transform="translate(-170 -217.41)"/><polygon class="cls-6" points="252.99 673.01 884.83 404.14 884.83 849.59 252.99 1118.45 252.99 673.01"/><path class="cls-4" d="M421.79,886.87l631.59-268.78a3.74,3.74,0,0,1,4.92,2,3.59,3.59,0,0,1,.3,1.45h0V1067a3.82,3.82,0,0,1-2.53,3.6L424.48,1339.34a3.79,3.79,0,0,1-5-2,4.42,4.42,0,0,1-.3-1.45h0V890.42a3.7,3.7,0,0,1,2.57-3.55Zm629.27-259.58L426.75,892.9v437.28l624.31-265.66Z" transform="translate(-170 -217.41)"/><polygon class="cls-7" points="881.07 589.71 881.07 847.1 256.75 1112.76 256.75 855.36 881.07 589.71"/><path class="cls-4" d="M1058.6,892.05v175a3.82,3.82,0,0,1-2.53,3.6L424.48,1339.34a3.79,3.79,0,0,1-5-2,4.42,4.42,0,0,1-.3-1.45h0V1150.64l7.53-3.08v182.62l624.31-265.66V895.13Z" transform="translate(-170 -217.41)"/><polygon class="cls-8" points="302.01 710.08 769.49 511.15 769.49 511.15 835.85 482.9 835.85 812.51 368.33 1011.44 368.33 1011.44 302.01 1039.69 302.01 710.08"/><polygon class="cls-9" points="835.85 608.93 838.21 811.49 303.59 1039.01 302.01 835.97 794.92 626.35 794.92 626.35 835.85 608.93"/><path class="cls-4" d="M470.77,923.94,938,725.1h0l66.28-28.25a3.79,3.79,0,0,1,5,2,3.48,3.48,0,0,1,.3,1.46h0v329.61a3.7,3.7,0,0,1-2.57,3.55L539.78,1232.32v0l-66.32,28.21a3.74,3.74,0,0,1-4.92-2,3.64,3.64,0,0,1-.3-1.46h0V927.49a3.7,3.7,0,0,1,2.57-3.55Zm470-191.82L475.78,930v321.39l60.83-25.86a1.48,1.48,0,0,1,.52-.21l465-197.85V706.05l-60.84,25.86a2.83,2.83,0,0,1-.52.21Zm0,0a3.89,3.89,0,0,1-1.24.22m-402.36,493a3.46,3.46,0,0,1,1.2-.22" transform="translate(-170 -217.41)"/><path class="cls-4" d="M470.77,923.94,938,725.1h0l46.54-19.82a3.81,3.81,0,0,1,5,2,4.5,4.5,0,0,1,.3,1.5h0v309.41a3.79,3.79,0,0,1-2.56,3.59L520.05,1220.59h0l-46.59,19.82a3.75,3.75,0,0,1-4.92-2,3.64,3.64,0,0,1-.3-1.46h0V927.49a3.7,3.7,0,0,1,2.57-3.55Zm470-191.82L475.78,930v301.27l41.05-17.51c.18-.08.35-.13.52-.21l465-197.86V714.44l-41.06,17.47a2.83,2.83,0,0,1-.52.21Zm0,0a3.89,3.89,0,0,1-1.24.22M517.35,1213.53a3.88,3.88,0,0,1,1.24-.17" transform="translate(-170 -217.41)"/><path class="cls-10" d="M982.31,836.36v179.31C811,1088.62,647.12,1158.31,475.78,1231.25V1051.89L939.49,854.55h0Z" transform="translate(-170 -217.41)"/><path class="cls-4" d="M989.88,872.74v145.42a3.79,3.79,0,0,1-2.56,3.59L520.05,1220.59h0l-46.59,19.82a3.75,3.75,0,0,1-4.92-2,3.64,3.64,0,0,1-.3-1.46h0V1074.36l7.58-2.91v159.8l41.05-17.51c.18-.08.35-.13.52-.21l465-197.86v-140ZM517.35,1213.53a3.88,3.88,0,0,1,1.24-.17" transform="translate(-170 -217.41)"/><polygon class="cls-11" points="364.3 760.46 425.65 734.39 425.65 734.39 441.5 727.63 441.5 806.31 380.14 832.42 380.14 832.42 364.3 839.14 364.3 760.46"/><path class="cls-4" d="M533.1,974.32l61.1-26v0L610,941.58a3.74,3.74,0,0,1,4.92,2,3.43,3.43,0,0,1,.3,1.45h0v78.68a3.83,3.83,0,0,1-2.52,3.6l-61.1,26h0L535.8,1060a3.71,3.71,0,0,1-4.92-2,3.55,3.55,0,0,1-.35-1.5h0V977.88a3.79,3.79,0,0,1,2.57-3.56Zm63.8-19-58.79,25v70.5l10.32-4.37.51-.25,58.79-25v-70.5l-10.32,4.41a2.75,2.75,0,0,1-.51.21Zm0,0a4,4,0,0,1-1.25.21m-46.71,90.67a3.71,3.71,0,0,1,1.2-.17" transform="translate(-170 -217.41)"/><polygon class="cls-12" points="474.5 713.59 535.81 687.52 535.81 687.52 551.65 680.75 551.65 759.43 490.35 785.55 490.35 785.55 474.5 792.27 474.5 713.59"/><path class="cls-4" d="M643.26,927.45l61.1-26,0-.05,15.8-6.72a3.74,3.74,0,0,1,4.92,2,3.51,3.51,0,0,1,.3,1.46h.05v78.68a3.78,3.78,0,0,1-2.57,3.59l-61.1,26h0l-15.8,6.72a3.76,3.76,0,0,1-4.92-2,3.65,3.65,0,0,1-.3-1.5h0V931a3.78,3.78,0,0,1,2.57-3.55Zm63.8-19-58.79,25V1004l10.32-4.41c.17-.09.34-.13.51-.22l58.79-25V903.86l-10.32,4.41a2.81,2.81,0,0,1-.51.22Zm0,0a4.31,4.31,0,0,1-1.25.21M659.1,999.36a4.29,4.29,0,0,1,1.25-.17" transform="translate(-170 -217.41)"/><polygon class="cls-13" points="584.66 666.72 646.02 640.6 646.02 640.6 661.82 633.88 661.82 712.56 600.51 738.67 600.51 738.67 584.66 745.39 584.66 666.72"/><path class="cls-4" d="M753.42,880.58l61.1-26h0l15.8-6.72a3.74,3.74,0,0,1,4.92,2,2.85,2.85,0,0,1,.3,1.46h0V930a3.79,3.79,0,0,1-2.57,3.59l-61.1,26h0l-15.84,6.73a3.78,3.78,0,0,1-4.92-2,3.69,3.69,0,0,1-.3-1.5h0V884.13a3.75,3.75,0,0,1,2.52-3.55Zm63.8-19-58.79,25v70.5l10.32-4.4c.17-.09.34-.13.51-.22l58.79-25V857l-10.32,4.41a2.75,2.75,0,0,1-.51.21Zm0,0a3.7,3.7,0,0,1-1.2.22m-46.76,90.66a4,4,0,0,1,1.25-.17" transform="translate(-170 -217.41)"/><polygon class="cls-14" points="694.83 619.84 756.18 593.73 756.18 593.73 772.02 587.01 772.02 665.69 710.67 691.8 710.67 691.8 694.83 698.52 694.83 619.84"/><path class="cls-4" d="M863.63,833.7l61-26h0l15.8-6.72a3.81,3.81,0,0,1,5,2,4.76,4.76,0,0,1,.3,1.5h0V883.1a3.7,3.7,0,0,1-2.57,3.55l-61.1,26h0l-15.8,6.72a3.79,3.79,0,0,1-5-2,3.62,3.62,0,0,1-.3-1.5h0V837.26a3.71,3.71,0,0,1,2.57-3.56Zm63.75-19-58.79,25v70.5L879,905.83a3.08,3.08,0,0,1,.52-.21l58.74-25v-70.5l-10.32,4.41c-.17.08-.34.12-.51.21Zm0,0a3.69,3.69,0,0,1-1.2.21m-46.71,90.67a3.46,3.46,0,0,1,1.2-.22" transform="translate(-170 -217.41)"/><polygon class="cls-15" points="437.73 778.31 437.73 803.83 368.11 833.45 368.11 807.98 437.73 778.31"/><path class="cls-4" d="M615.26,999.58v24.14a3.83,3.83,0,0,1-2.52,3.6l-61.1,26h0L535.8,1060a3.71,3.71,0,0,1-4.92-2,3.55,3.55,0,0,1-.35-1.5h0v-20.93l7.58-3.21v18.45l10.32-4.37.51-.25,58.79-25v-18.45Zm-66.32,46.66a3.71,3.71,0,0,1,1.2-.17" transform="translate(-170 -217.41)"/><polygon class="cls-16" points="547.89 731.44 547.89 756.95 478.27 786.57 478.27 761.06 547.89 731.44"/><path class="cls-4" d="M725.47,953.52v23.33a3.78,3.78,0,0,1-2.57,3.59l-61.1,26h0l-15.8,6.72a3.76,3.76,0,0,1-4.92-2,3.65,3.65,0,0,1-.3-1.5h0V989.56l7.58-3.21V1004l10.32-4.41c.17-.09.34-.13.51-.22l58.79-25V956.73ZM659.1,999.36a4.29,4.29,0,0,1,1.25-.17" transform="translate(-170 -217.41)"/><polygon class="cls-17" points="658.05 684.57 658.05 710.08 588.43 739.7 588.43 714.19 658.05 684.57"/><path class="cls-4" d="M835.63,905.23V930a3.79,3.79,0,0,1-2.57,3.59l-61.1,26h0l-15.84,6.73a3.78,3.78,0,0,1-4.92-2,3.69,3.69,0,0,1-.3-1.5h0V941.28l7.53-3.21v19l10.32-4.4c.17-.09.34-.13.51-.22l58.79-25v-19Zm-66.37,47.26a4,4,0,0,1,1.25-.17" transform="translate(-170 -217.41)"/><polygon class="cls-18" points="768.21 637.69 768.21 663.21 698.59 692.83 698.59 667.31 765.72 638.76 765.72 638.76 768.21 637.69"/><path class="cls-4" d="M945.79,859.09v24a3.7,3.7,0,0,1-2.57,3.55l-61.1,26h0l-15.8,6.72a3.79,3.79,0,0,1-5-2,3.62,3.62,0,0,1-.3-1.5h0v-20.8l7.53-3.21v18.32L879,905.83a3.08,3.08,0,0,1,.52-.21l58.74-25V862.3Zm-66.32,46.53a3.46,3.46,0,0,1,1.2-.22" transform="translate(-170 -217.41)"/><polygon class="cls-19" points="213.3 1096.07 252.99 1118.45 252.99 673.01 213.3 650.62 213.3 1096.07"/><path class="cls-4" d="M387.07,1311.3l32.15,18.1V892.6l-32.15-18.15Zm34.08,27.82-39.39-22.21a3.73,3.73,0,0,1-2.27-3.43V868h0a3.61,3.61,0,0,1,.47-1.84,3.78,3.78,0,0,1,5.14-1.41L424.53,887a3.8,3.8,0,0,1,2.22,3.47v445.45h0a4.19,4.19,0,0,1-.47,1.84,3.77,3.77,0,0,1-5.13,1.41Z" transform="translate(-170 -217.41)"/><path class="cls-20" d="M779.84,881.39" transform="translate(-170 -217.41)"/><path class="cls-20" d="M832.5,841.15" transform="translate(-170 -217.41)"/><path class="cls-20" d="M937.91,796.29" transform="translate(-170 -217.41)"/><path class="cls-21" d="M1043.27,769.28" transform="translate(-170 -217.41)"/><path class="cls-21" d="M1096,729" transform="translate(-170 -217.41)"/><polygon class="cls-22" points="213.3 650.62 252.99 673.01 884.83 404.14 845.1 381.75 213.3 650.62"/><path class="cls-4" d="M391.77,868.5l31.43,17.73,623.16-265.15-31.47-17.72Zm29.38,25.22-39.48-22.3a3.43,3.43,0,0,1-1.84-1.93,3.73,3.73,0,0,1,2-4.92L1013.65,595.7v0a3.59,3.59,0,0,1,3.29.17l39.52,22.26a3.7,3.7,0,0,1,1.84,1.93,3.76,3.76,0,0,1-2,4.92L424.48,893.89h0a4,4,0,0,1-3.33-.17Z" transform="translate(-170 -217.41)"/><polygon class="cls-17" points="364.3 869.02 425.65 842.91 425.65 842.91 441.5 836.19 441.5 914.87 380.14 940.98 380.14 940.98 364.3 947.7 364.3 869.02"/><path class="cls-4" d="M533.1,1082.84l61.1-26h0l15.84-6.72a3.78,3.78,0,0,1,4.92,2,3.69,3.69,0,0,1,.3,1.5h0v78.68a3.79,3.79,0,0,1-2.52,3.55l-61.1,26,0,0-15.8,6.72a3.74,3.74,0,0,1-4.92-2,3.55,3.55,0,0,1-.35-1.46h0v-78.68a3.78,3.78,0,0,1,2.57-3.59Zm63.8-18.92-58.79,25v70.5l10.32-4.41a2.2,2.2,0,0,1,.51-.21l58.79-25v-70.51l-10.32,4.41c-.17.09-.34.13-.51.22Zm0,0a4,4,0,0,1-1.25.17m-46.71,90.71a3.75,3.75,0,0,1,1.2-.22" transform="translate(-170 -217.41)"/><polygon class="cls-18" points="474.5 822.15 535.81 796.03 535.81 796.03 551.65 789.31 551.65 867.99 490.35 894.06 490.35 894.06 474.5 900.83 474.5 822.15"/><path class="cls-4" d="M643.26,1036l61.1-26h0l15.8-6.72a3.72,3.72,0,0,1,4.92,2,3.5,3.5,0,0,1,.3,1.5h.05v78.68a3.78,3.78,0,0,1-2.57,3.55l-61.1,26,0,0-15.8,6.72a3.74,3.74,0,0,1-4.92-2,3.43,3.43,0,0,1-.3-1.45h0v-78.68a3.81,3.81,0,0,1,2.57-3.6Zm63.8-18.92-58.79,25v70.51l10.32-4.41a2.81,2.81,0,0,1,.51-.22l58.79-25v-70.5l-10.32,4.41a2.75,2.75,0,0,0-.51.21Zm0,0a4,4,0,0,1-1.25.18m-46.71,90.7a4,4,0,0,1,1.25-.21" transform="translate(-170 -217.41)"/><polygon class="cls-16" points="584.66 775.27 646.02 749.16 646.02 749.16 661.82 742.44 661.82 821.12 600.51 847.19 600.51 847.19 584.66 853.95 584.66 775.27"/><path class="cls-4" d="M753.42,989.09l61.1-26h0l15.8-6.72a3.71,3.71,0,0,1,4.92,2,2.88,2.88,0,0,1,.3,1.49h0v78.68a3.79,3.79,0,0,1-2.57,3.56l-61.1,26v0l-15.84,6.72a3.74,3.74,0,0,1-4.92-2,3.43,3.43,0,0,1-.3-1.45h0V992.69a3.82,3.82,0,0,1,2.52-3.6Zm63.8-19-58.79,25v70.5l10.32-4.41a2.75,2.75,0,0,1,.51-.21l58.79-25V965.55l-10.32,4.36a2.81,2.81,0,0,1-.51.22Zm0,0a2.87,2.87,0,0,1-1.2.21m-46.76,90.71a4,4,0,0,1,1.25-.21" transform="translate(-170 -217.41)"/><polygon class="cls-15" points="694.83 728.4 756.18 702.29 756.18 702.29 772.02 695.52 772.02 774.2 710.67 800.32 710.67 800.32 694.83 807.08 694.83 728.4"/><path class="cls-4" d="M863.63,942.22l61-26h0l15.8-6.76a3.8,3.8,0,0,1,5,2,4.48,4.48,0,0,1,.3,1.46h0v78.68a3.78,3.78,0,0,1-2.57,3.59l-61.1,26h0l-15.8,6.76a3.79,3.79,0,0,1-5-2,3.48,3.48,0,0,1-.3-1.46h0V945.81a3.78,3.78,0,0,1,2.57-3.59Zm63.75-19-58.79,25v70.46l10.36-4.37a1.31,1.31,0,0,1,.52-.21l58.74-25V918.67L927.89,923a2.2,2.2,0,0,1-.51.21Zm0,0a3.7,3.7,0,0,1-1.2.22m-46.71,90.71a3.46,3.46,0,0,1,1.2-.22" transform="translate(-170 -217.41)"/><path class="cls-23" d="M612.05,543.94V674c-67.6,28.77-97.91,39.56-122.66,66-4.75,5.09-6-3.13-10.4,2.1-16.83,20.29-49.5,45.33-51.34-1l-.13-6.34V472.33l184.53-78.51V543.94Z" transform="translate(-170 -217.41)"/><path class="cls-4" d="M615.86,543.94V674a3.8,3.8,0,0,1-2.57,3.6l-21.06,8.9c-52.49,22.13-78.65,33.18-100.1,56-4.32,4.62-7.11,3.16-9.85,1.75-.08,0-.13-.08-.38.17-7.19,8.69-17.21,18.24-26.8,23.12-4.88,2.52-9.72,3.85-14.17,3.42-4.84-.51-9-3-12.12-8.26-2.74-4.71-4.54-11.68-4.92-21.57V741l-.13-6.21v-.09h0V472.33a3.7,3.7,0,0,1,2.57-3.55L610.6,390.35a3.73,3.73,0,0,1,4.92,2,3.69,3.69,0,0,1,.3,1.5h0V543.94Zm-7.58,45V399.51l-177,75.3V734.73h0l.13,6.12v0c.34,8.6,1.76,14.42,3.9,18.06,1.67,2.91,3.89,4.33,6.38,4.58,2.91.3,6.33-.73,10-2.61,8.56-4.37,17.77-13.18,24.45-21.23,4.11-5,6.81-3.55,9.67-2.06.22.13.43.22.86-.25,22.52-24,49.15-35.23,102.67-57.79l19-8.05V588.93Z" transform="translate(-170 -217.41)"/><path class="cls-7" d="M630.55,689.62,460.36,764.53c-7.28,1.54-7.53,1.28-13.91,2.39,12.16-8.39,11.39-23.63,11.39-34.28l182.68-80.87v6.6c-.08,10.48-1.15,22.81-10,31.25Z" transform="translate(-170 -217.41)"/><path class="cls-4" d="M632.05,693.08,461.86,768a2.77,2.77,0,0,1-.86.26c-4.66,1-6.5,1.28-8.86,1.63-1.33.21-2.82.42-5.05.81a3.77,3.77,0,0,1-2.61-6.94c9.67-6.8,9.63-19.64,9.59-29.19v-1.88a3.7,3.7,0,0,1,2.44-3.51L639,648.31a3.8,3.8,0,0,1,5,2,3.67,3.67,0,0,1,.3,1.79v6.34h0a73.15,73.15,0,0,1-1.8,17.29,34.12,34.12,0,0,1-9.37,16.65,3.7,3.7,0,0,1-1.07.73ZM459.21,760.89l169.2-74.44a27,27,0,0,0,6.76-12.63,65.8,65.8,0,0,0,1.63-15.5v-.77L461.6,735.12c0,8.09,0,18.06-4.92,26.28.73-.13,1.54-.3,2.53-.51Z" transform="translate(-170 -217.41)"/><path class="cls-24" d="M591.33,446.77,448.25,507.64v-10L591.33,436.8v10Z" transform="translate(-170 -217.41)"/><path class="cls-24" d="M591.33,474.64,448.25,535.55v-10l143.08-60.91v10Z" transform="translate(-170 -217.41)"/><path class="cls-24" d="M591.33,502.55,448.25,563.42v-10l143.08-60.87v10Z" transform="translate(-170 -217.41)"/><path class="cls-24" d="M591.33,530.46,448.25,591.33v-10l143.08-60.87v10Z" transform="translate(-170 -217.41)"/><path class="cls-24" d="M591.33,558.33,448.25,619.24v-10L591.33,548.4v9.93Z" transform="translate(-170 -217.41)"/><path class="cls-24" d="M591.33,586.24,448.25,647.11v-10l143.08-60.87v10Z" transform="translate(-170 -217.41)"/><path class="cls-24" d="M591.33,614.15,448.25,675V665l143.08-60.87v10Z" transform="translate(-170 -217.41)"/><path class="cls-25" d="M701.75,622.15c7.7-4.15,15.45,4.41,17.34,19.09s-2.87,30-10.58,34.12-15.45-4.41-17.34-19.09,2.87-30,10.58-34.12Z" transform="translate(-170 -217.41)"/><path class="cls-26" d="M711.29,623.35h0l.22.21h0l.6.6,0,.05a6.58,6.58,0,0,1,.56.6l.09.08.17.17,0,.09c.17.21.34.43.51.68l.09.09.17.21.09.09.21.34.13.17.13.22.08.12.13.22.17.3.13.21.09.17.12.17.18.35,0,0h0l0,.13.13.21.13.26.08.17.13.3.17.3,0,.13.17.34,0,.13c0,.13.13.26.17.43l0,0,0,.09.13.34,0,.17.17.34V632l0,0,.17.47,0,.13.08.34.09.17.13.47,0,0v.08l.17.43v.13l.13.43,0,.08v0l.13.51,0,.13.13.47,0,.08c.05.18.09.39.13.56v.09l.13.51,0,.13.09.47V638l0,0,.09.51,0,.18.09.42v.17l.08.56,0,.17.08.43v.21a3.23,3.23,0,0,1,.09.6c0,.22,0,.47.08.69h0c0,.47.09.9.13,1.37h0v0a3.29,3.29,0,0,1,0,.6l0,0v.09a3.44,3.44,0,0,0,0,.64v.69a3.61,3.61,0,0,1,0,.68h0v.69h0a3.88,3.88,0,0,1,0,.68h0v.69h0a3.49,3.49,0,0,1,0,.64v.81l0,.47v.64l0,.22c0,.64-.09,1.28-.13,1.92V653l-.09.47v.13l0,.6,0,0-.05.56,0,.09c-.08.64-.17,1.24-.26,1.88l0,.09-.08.47,0,.17-.08.51v.09c-.09.38-.17.81-.26,1.2l0,0c-.05.17-.09.38-.13.55V660l-.13.47,0,.17-.13.39,0,.17-.09.43,0,.08,0,.09-.13.47v0l0,0-.12.52,0,.13-.17.38,0,.13-.13.43,0,.13-.39,1h0a3.15,3.15,0,0,0-.21.52l0,.08-.18.43,0,.09-.17.38-.09.13-.17.39,0,.12a9.7,9.7,0,0,1-.47.9l0,.09c-.05.13-.13.26-.17.38l-.09.09-.17.34-.09.09-.17.34-.08.13-.22.34,0,0a3.24,3.24,0,0,1-.26.43h0l0,0c-.09.12-.13.25-.21.34l-.09.08-.21.3-.09.13-.17.26-.09.08c-.08.13-.17.22-.21.3l-.09.09c-.08.08-.17.21-.25.3l0,0h0c-.08.09-.17.22-.25.3l-.09.09-.21.25-.13.09a.5.5,0,0,1-.22.21l-.08.09a.5.5,0,0,1-.22.21l-.08.09a1.2,1.2,0,0,1-.26.21l0,.09c-.13.08-.21.17-.34.25l0,0a1.16,1.16,0,0,0-.25.21l-.09,0a.87.87,0,0,1-.26.18l-.08.08-.26.13-.08.09-.26.12-.09.09c-.12,0-.21.13-.34.17a.73.73,0,0,1-.34.17v0h0c-.09,0-.22.09-.3.13l-.05,0h0l-.34.12c-3.47-2-6.34-9.28-7.23-19.6-1.25-14.68,2-30,7.19-34.12a5.87,5.87,0,0,1,.9-.6,10.19,10.19,0,0,1,3,1.8Z" transform="translate(-170 -217.41)"/><path class="cls-4" d="M700,618.81a12.58,12.58,0,0,1,4.28-1.37,11.64,11.64,0,0,1,8.43,2.23,20.09,20.09,0,0,1,6,7.06,40.21,40.21,0,0,1,4.19,14,54.43,54.43,0,0,1-1.8,22.6c-2.22,7.11-6,12.76-10.7,15.33a12.44,12.44,0,0,1-4.28,1.37,11.68,11.68,0,0,1-8.44-2.23,19.88,19.88,0,0,1-6-7.1,39.65,39.65,0,0,1-4.19-14,54.43,54.43,0,0,1,1.8-22.6c2.22-7.11,6-12.76,10.7-15.33Zm5.22,6.08a4.76,4.76,0,0,0-1.67.56c-3,1.58-5.44,5.65-7.06,10.91a47.41,47.41,0,0,0-1.54,19.44,32.43,32.43,0,0,0,3.38,11.38,12.05,12.05,0,0,0,3.64,4.5,4.56,4.56,0,0,0,3.17.94,4.76,4.76,0,0,0,1.67-.56c2.91-1.58,5.43-5.65,7.06-10.91a47.39,47.39,0,0,0,1.54-19.44A33.52,33.52,0,0,0,712,630.33a12.05,12.05,0,0,0-3.64-4.5,4.61,4.61,0,0,0-3.17-.94Z" transform="translate(-170 -217.41)"/><polygon class="cls-27" points="544.46 3.77 544.46 422.59 514.62 431.02 514.62 16.48 544.46 3.77"/><path d="M718.23,221.18V640a3.82,3.82,0,0,1-3,3.73l-29.58,8.34a3.79,3.79,0,0,1-4.67-2.61,4.46,4.46,0,0,1-.13-1h0V233.89a3.76,3.76,0,0,1,2.53-3.59L713,217.71a3.8,3.8,0,0,1,5,2,4.42,4.42,0,0,1,.3,1.45Zm-7.54,416V226.87l-22.3,9.51V643.47Z" transform="translate(-170 -217.41)"/><polygon class="cls-28" points="559.79 12.84 559.79 431.66 529.95 440.1 529.95 25.51 559.79 12.84"/><path class="cls-4" d="M733.56,230.26V649.08a3.76,3.76,0,0,1-3,3.68L701,661.11a3.75,3.75,0,0,1-4.67-2.62,3.42,3.42,0,0,1-.13-1h0V242.93a3.81,3.81,0,0,1,2.53-3.56l29.58-12.58a3.76,3.76,0,0,1,5.27,3.47Zm-7.54,416V236l-22.3,9.5V652.5Z" transform="translate(-170 -217.41)"/><polygon class="cls-28" points="549.73 28.64 549.73 200.94 537.44 204.4 537.44 33.86 549.73 28.64"/><polygon class="cls-29" points="514.62 431.02 529.95 440.1 529.95 25.51 514.62 16.48 514.62 431.02"/><path class="cls-4" d="M688.39,646.29l7.79,4.59V245.11l-7.79-4.62ZM698,660.76l-15.11-8.94a3.82,3.82,0,0,1-2.06-3.38V233.89h0a3.85,3.85,0,0,1,.52-1.92,3.77,3.77,0,0,1,5.18-1.33l15.11,9a3.69,3.69,0,0,1,2.06,3.34V657.51h0a4,4,0,0,1-.52,1.93,3.85,3.85,0,0,1-5.18,1.32Z" transform="translate(-170 -217.41)"/><polygon class="cls-28" points="544.46 3.77 559.79 12.84 529.95 25.51 514.62 16.48 544.46 3.77"/><path class="cls-4" d="M716.35,217.93,731.72,227a3.82,3.82,0,0,1,1.32,5.18,4,4,0,0,1-1.88,1.59L701.4,246.39a3.61,3.61,0,0,1-3.38-.21h0l-15.33-9a3.78,3.78,0,0,1-1.32-5.18,3.6,3.6,0,0,1,1.88-1.59L713,217.71a3.9,3.9,0,0,1,3.39.22Zm5.09,11.77-7.28-4.28-21.23,9,7.28,4.28Z" transform="translate(-170 -217.41)"/><polygon class="cls-26" points="569.29 35.57 569.29 256.54 553.58 260.95 553.58 42.29 569.29 35.57"/><path class="cls-4" d="M743.06,253V474a3.81,3.81,0,0,1-2.95,3.69L724.57,482a3.74,3.74,0,0,1-4.63-2.61,4.52,4.52,0,0,1-.17-1h0V259.71a3.81,3.81,0,0,1,2.57-3.6l15.5-6.59a3.75,3.75,0,0,1,4.92,2,3.48,3.48,0,0,1,.3,1.46Zm-7.53,218.1V258.68l-8.18,3.51V473.4Z" transform="translate(-170 -217.41)"/><polygon class="cls-26" points="553.97 26.54 569.29 35.57 553.58 42.29 538.21 33.22 553.97 26.54"/><path class="cls-4" d="M725.89,240.7l15.33,9a3.77,3.77,0,0,1-.56,6.77L725,263.17a3.84,3.84,0,0,1-3.38-.21h0l-15.33-9.07a3.78,3.78,0,0,1-1.33-5.18,3.88,3.88,0,0,1,1.84-1.59l15.67-6.63a3.61,3.61,0,0,1,3.38.21Zm5.1,11.73-7.32-4.28-7.11,3,7.28,4.28Z" transform="translate(-170 -217.41)"/><path class="cls-30" d="M1282.56,762.13l94.83,55.39c20.72,12.12,37,40.63,36.18,63.31l-4.28,118c-.82,22.69-18.45,31.38-39.22,19.26l-94.83-55.35c-20.77-12.11-37-40.62-36.22-63.35l4.32-117.93c.82-22.73,18.45-31.42,39.22-19.31Z" transform="translate(-170 -217.41)"/><path class="cls-4" d="M1284.44,758.88l94.88,55.39c10.92,6.38,20.68,17,27.53,29.06s11,25.56,10.49,37.63l-4.28,118a35.63,35.63,0,0,1-4.37,16.61,23.58,23.58,0,0,1-9.21,9,25,25,0,0,1-12.67,2.78c-5.74-.22-12.07-2.14-18.62-5.95L1273.31,966c-10.92-6.43-20.68-17.08-27.53-29.07s-11-25.6-10.49-37.67l4.28-117.93a35.77,35.77,0,0,1,4.37-16.65,23.33,23.33,0,0,1,9.21-8.95,24.31,24.31,0,0,1,12.63-2.78c5.78.21,12.11,2.14,18.66,6Zm91.07,61.9-94.88-55.4c-5.43-3.16-10.57-4.79-15.11-5a17.6,17.6,0,0,0-8.86,1.92,16.07,16.07,0,0,0-6.21,6.13,27.67,27.67,0,0,0-3.34,13.09l-4.32,117.94c-.39,10.66,3.29,22.73,9.54,33.64s15,20.59,24.79,26.29l94.88,55.39c5.43,3.21,10.57,4.79,15.11,5a16.94,16.94,0,0,0,8.82-1.88,15.64,15.64,0,0,0,6.21-6.16,27.24,27.24,0,0,0,3.38-13.06l4.32-118c.39-10.61-3.29-22.73-9.54-33.64s-15-20.55-24.79-26.28Z" transform="translate(-170 -217.41)"/><path class="cls-31" d="M1263,771.42l94.87,55.39c20.72,12.07,37,40.58,36.18,63.31l-4.32,117.93c-.82,22.73-18.46,31.42-39.18,19.31l-9.55-5.56v46.78l-41.14-70.8L1255.72,972c-20.73-12.12-37-40.58-36.18-63.31l4.28-118c.86-22.69,18.49-31.38,39.22-19.26Z" transform="translate(-170 -217.41)"/><path class="cls-4" d="M1264.92,768.12l94.88,55.39c11,6.43,20.67,17.08,27.57,29.11s10.92,25.56,10.49,37.63l-4.33,117.93a35.3,35.3,0,0,1-4.36,16.65,23.57,23.57,0,0,1-9.17,9,24.36,24.36,0,0,1-12.67,2.78c-5.78-.21-12.12-2.14-18.67-6l-3.85-2.22v40.19a3.77,3.77,0,0,1-7.15,1.67l-40.5-69.73-43.33-25.3c-11-6.38-20.68-17-27.57-29.06s-10.92-25.56-10.49-37.63l4.28-118a35.16,35.16,0,0,1,4.41-16.61,23.17,23.17,0,0,1,9.16-9,24.93,24.93,0,0,1,12.68-2.79c5.78.22,12.11,2.14,18.62,6ZM1356,830.06l-94.84-55.39c-5.48-3.21-10.62-4.79-15.11-5a17,17,0,0,0-8.86,1.88,15.83,15.83,0,0,0-6.21,6.16,28.21,28.21,0,0,0-3.38,13.1l-4.28,117.94c-.39,10.61,3.25,22.73,9.5,33.64s15,20.55,24.83,26.29l44.19,25.81h0a3.47,3.47,0,0,1,1.37,1.37l34.13,58.69V1021.8h0a3.78,3.78,0,0,1,5.69-3.26l9.5,5.57c5.44,3.16,10.58,4.79,15.12,5a17.41,17.41,0,0,0,8.86-1.92,16.14,16.14,0,0,0,6.21-6.13,28.14,28.14,0,0,0,3.38-13.09L1390.32,890c.39-10.66-3.3-22.73-9.5-33.64s-15-20.59-24.83-26.29Z" transform="translate(-170 -217.41)"/><path class="cls-26" d="M1308.16,842.73c13.23,6.6,23.34,23.16,22.48,37s-12.2,19.65-25.43,13-23.34-23.16-22.52-37,12.24-19.65,25.47-13Z" transform="translate(-170 -217.41)"/><path class="cls-26" d="M1304.78,899.5c33.91,17,43.28,48,41.4,79.62l-89.61-44.74c1.89-31.63,14.3-51.83,48.21-34.88Z" transform="translate(-170 -217.41)"/><polygon class="cls-32" points="702.53 1059.04 872.16 986.82 872.16 986.82 978.34 941.66 1148.39 1004.72 1148.39 1039.82 872.54 1157.19 872.54 1157.19 766.37 1202.4 596.31 1104.2 702.53 1059.04"/><path class="cls-4" d="M871,1273l169.63-72.22h0l106.18-45.16a3.71,3.71,0,0,1,2.79-.09h0l170,63.1a3.68,3.68,0,0,1,2.44,3.55v35.06a3.83,3.83,0,0,1-2.52,3.6L1044,1378.08l0,0-106.18,45.16a3.78,3.78,0,0,1-3.38-.21l-170-98.2a3.73,3.73,0,0,1-1.37-5.14,3.84,3.84,0,0,1,1.75-1.58h0Zm172.37-65.16L874,1279.88l-99.25,42.25,161.88,93.49,104.21-44.35a2.27,2.27,0,0,1,.52-.21l273.28-116.31v-30l-166.21-61.68-104.55,44.52c-.17.09-.34.13-.47.21Z" transform="translate(-170 -217.41)"/><polygon class="cls-7" points="702.53 1023.89 872.16 951.72 872.16 951.72 978.34 906.52 1148.39 1004.72 872.54 1122.09 872.54 1122.09 766.37 1167.3 596.31 1069.1 702.53 1023.89"/><polygon class="cls-33" points="706.38 1022.27 859.53 957.12 859.53 957.12 885.39 946.11 938.69 976.89 759.69 1053.05 706.38 1022.27"/><path class="cls-4" d="M871,1237.84l169.63-72.17h0l106.18-45.2a3.71,3.71,0,0,1,3.38.25l170,98.16a3.78,3.78,0,0,1-.39,6.72h0L1044,1343l0,0-106.18,45.16a3.87,3.87,0,0,1-3.38-.22l-170-98.19a3.73,3.73,0,0,1-1.37-5.14,3.87,3.87,0,0,1,1.75-1.59h0Zm172.37-65.15L874,1244.78,774.74,1287l161.88,93.49,104.21-44.35a2.89,2.89,0,0,1,.52-.22L1310,1221.62l-161.92-93.49-104.21,44.39a3.45,3.45,0,0,1-.47.17Z" transform="translate(-170 -217.41)"/><polygon class="cls-32" points="596.31 1069.1 596.31 1104.2 766.37 1202.4 766.37 1167.3 596.31 1069.1"/><path class="cls-4" d="M770.08,1293.06v26.41l162.48,93.84v-26.42Zm-7.54,28.55v-35.1h0a3.71,3.71,0,0,1,.52-1.88,3.75,3.75,0,0,1,5.13-1.37L938,1381.33a3.69,3.69,0,0,1,2.14,3.38v35.1h0a3.83,3.83,0,0,1-.51,1.89,3.75,3.75,0,0,1-5.14,1.37l-169.84-98a3.86,3.86,0,0,1-2.1-3.43Z" transform="translate(-170 -217.41)"/><polygon class="cls-30" points="740.81 1018.16 854.86 969.62 854.86 969.62 947.94 930.02 1096.97 1016.06 855.21 1118.92 855.21 1118.92 796.76 1143.8 647.77 1057.75 740.81 1018.16"/><polygon class="cls-10" points="740.81 1018.16 834.74 978.18 834.74 978.18 854.86 969.62 854.86 969.62 927.82 938.58 927.82 938.58 1076.85 1024.62 855.21 1118.92 855.21 1118.92 835.13 1127.49 796.76 1143.8 647.77 1057.75 720.73 1026.72 740.81 1018.16"/><polygon class="cls-34" points="728.22 1023.51 822.15 983.57 822.15 983.57 842.23 975.01 842.23 975.01 895.88 952.15 938.69 976.89 759.69 1053.05 716.87 1028.35 728.22 1023.51"/><polygon class="cls-17" points="689.73 980.57 868.74 904.42 979.07 968.12 800.06 1044.31 689.73 980.57"/><path class="cls-4" d="M858.23,1194.52l179-76.15a3.6,3.6,0,0,1,3.38.21l110.33,63.7a3.78,3.78,0,0,1-.39,6.72h0l-179,76.15a3.71,3.71,0,0,1-3.43-.21l-110.28-63.7a3.73,3.73,0,0,1-1.37-5.14,3.66,3.66,0,0,1,1.75-1.58ZM1038.48,1126,868.12,1198.5l102.2,59L1140.67,1185Z" transform="translate(-170 -217.41)"/><polygon class="cls-26" points="910.01 928.26 979.07 968.12 800.06 1044.31 731.04 1004.42 910.01 928.26"/><path class="cls-4" d="M1081.93,1142.42l69,39.86a3.78,3.78,0,0,1-.39,6.72h0l-179,76.15a3.71,3.71,0,0,1-3.43-.21l-69-39.86a3.76,3.76,0,0,1,.43-6.72h0l179-76.15a3.65,3.65,0,0,1,3.38.21Zm58.74,42.6-60.88-35.15-170.35,72.47,60.88,35.15Z" transform="translate(-170 -217.41)"/><polygon class="cls-30" points="891.68 967.26 921.61 954.5 940.06 965.16 910.13 977.92 891.68 967.26"/><polygon class="cls-10" points="1132.94 1024.19 1132.94 1035.84 1105.15 1047.65 1105.15 1036.01 1132.94 1024.19"/><path class="cls-10" d="M1241.33,1266.26c3.42-.81,6.25,1.33,6.25,4.76a8.39,8.39,0,0,1-6.25,7.7c-3.43.77-6.21-1.37-6.21-4.79a8.3,8.3,0,0,1,6.21-7.67Z" transform="translate(-170 -217.41)"/><path class="cls-10" d="M1217.53,1276.15c3.46-.77,6.25,1.37,6.25,4.8a8.3,8.3,0,0,1-6.25,7.66c-3.43.81-6.21-1.33-6.21-4.75a8.35,8.35,0,0,1,6.21-7.71Z" transform="translate(-170 -217.41)"/><polygon class="cls-33" points="846.34 830.75 846.34 861.87 466.67 1023.42 466.67 992.3 846.34 830.75"/><path class="cls-1" d="M846.06,234.3c38.52,0,73.36,30.6,77.89,68.36s-23.13,68.4-61.58,68.4-73.36-30.6-77.89-68.4,23.13-68.36,61.58-68.36Z" transform="translate(-170 -217.41)"/><path class="cls-35" d="M285.08,1044.74c31.39,10.36,54.59,51.67,51.76,92.29s-30.56,65.15-62,54.79-54.59-51.66-51.76-92.29,30.57-65.19,62-54.79Z" transform="translate(-170 -217.41)"/><path class="cls-4" d="M286.07,1041.14c16.69,5.53,31.12,19.14,41,36.69a108.48,108.48,0,0,1,13.57,59.63A90,90,0,0,1,337.4,1156c-4,13.78-11.13,24.83-20.34,32.1a44,44,0,0,1-33.13,9.51,53,53,0,0,1-10.11-2.23c-16.65-5.52-31.12-19.14-41-36.69a108.52,108.52,0,0,1-13.53-59.63,88.81,88.81,0,0,1,3.21-18.57c3.94-13.79,11.13-24.87,20.3-32.15a44.42,44.42,0,0,1,33.18-9.5,51.28,51.28,0,0,1,10.06,2.26Zm34.46,40.11c-8.9-15.88-21.75-28.12-36.47-33a45.53,45.53,0,0,0-8.57-1.92,37,37,0,0,0-27.78,8c-8.1,6.38-14.39,16.23-17.94,28.55a82.18,82.18,0,0,0-2.91,17,100.36,100.36,0,0,0,12.54,55.35c8.91,15.84,21.75,28.08,36.48,33a41.85,41.85,0,0,0,8.52,1.88,36.94,36.94,0,0,0,27.83-8c8-6.38,14.38-16.18,17.94-28.51a83.41,83.41,0,0,0,2.91-17,100.73,100.73,0,0,0-12.55-55.35Z" transform="translate(-170 -217.41)"/><path class="cls-36" d="M269,1046c32.2,10.62,56,53,53.09,94.69s-31.34,66.82-63.57,56.21-56-53-53.09-94.69S236.75,1035.37,269,1046Z" transform="translate(-170 -217.41)"/><path class="cls-28" d="M312.06,1088.23a106.91,106.91,0,0,1,10,52.48c-2.86,41.65-31.34,66.82-63.57,56.21-14.56-4.84-27.41-16.14-36.82-30.91a107.51,107.51,0,0,1-10.07-52.48c2.92-41.65,31.39-66.82,63.58-56.2,14.6,4.83,27.45,16.13,36.87,30.9Z" transform="translate(-170 -217.41)"/><path class="cls-4" d="M270,1042.43c17.08,5.65,31.86,19.6,42,37.58a111.49,111.49,0,0,1,13.87,61.13,90.32,90.32,0,0,1-3.3,19c-4,14.12-11.38,25.47-20.8,32.92a45.23,45.23,0,0,1-33.91,9.71,51.35,51.35,0,0,1-10.36-2.31c-17.08-5.65-31.86-19.56-42-37.54a111.11,111.11,0,0,1-13.87-61.13,90.71,90.71,0,0,1,3.3-19c4-14.12,11.38-25.42,20.8-32.87a45.18,45.18,0,0,1,33.91-9.76,54.22,54.22,0,0,1,10.36,2.31Zm35.41,41c-9.12-16.31-22.35-28.85-37.46-33.86a44,44,0,0,0-8.78-2,38.3,38.3,0,0,0-28.6,8.22c-8.26,6.59-14.77,16.65-18.41,29.32a84.47,84.47,0,0,0-3,17.51,103.35,103.35,0,0,0,12.89,56.84c9.12,16.27,22.35,28.86,37.46,33.82a44,44,0,0,0,8.78,2,38.19,38.19,0,0,0,28.6-8.22c8.26-6.55,14.77-16.65,18.41-29.32a84.2,84.2,0,0,0,3-17.47,103.19,103.19,0,0,0-12.89-56.84Z" transform="translate(-170 -217.41)"/><path class="cls-35" d="M267.1,1074.4c20.08,6.64,34.94,33.09,33.14,59.12s-19.57,41.69-39.69,35.06-34.94-33.09-33.14-59.07,19.57-41.74,39.69-35.11Z" transform="translate(-170 -217.41)"/><path class="cls-28" d="M269.88,1080.36c19,6.24,33,31.2,31.26,55.69s-18.45,39.34-37.42,33.09-33-31.21-31.26-55.74,18.46-39.34,37.42-33Z" transform="translate(-170 -217.41)"/><path class="cls-35" d="M287.18,1136.86c.56,4.24-.38,7.53-2.83,9.93s-6.16,3.38-11.26,3l1.12,8.34-9.89-2.61-1-8a56.67,56.67,0,0,1-10.27-4.41,46.67,46.67,0,0,1-8.44-5.65l3.64-11.52a52.14,52.14,0,0,0,8.31,5.57,38.25,38.25,0,0,0,8.47,3.55c2.31.6,3.9.82,4.84.6a1.45,1.45,0,0,0,1.2-1.75,4.4,4.4,0,0,0-2.27-3,62,62,0,0,0-6.59-3.51,94.07,94.07,0,0,1-9.81-5.27,28.61,28.61,0,0,1-7.23-6.55,20,20,0,0,1-4-9.84c-.56-4.41.42-7.79,3-10.19s6.55-3.25,12-2.61l-1.07-8.22,9.89,2.66,1.07,8a50,50,0,0,1,14.77,8.14l-3.3,11.55c-5.14-3.89-9.85-6.42-14.17-7.53s-6.21-.6-5.91,1.63a4.24,4.24,0,0,0,2.19,2.86,53.65,53.65,0,0,0,6.46,3.34,100.83,100.83,0,0,1,9.8,5.1,28.69,28.69,0,0,1,7.33,6.59,19.24,19.24,0,0,1,4,9.76Z" transform="translate(-170 -217.41)"/></svg>