<svg id="Layer_1" data-name="Layer 1" xmlns="http://www.w3.org/2000/svg" xmlns:xlink="http://www.w3.org/1999/xlink" viewBox="0 0 2800 2800"><defs><style>.cls-1,.cls-22,.cls-6{fill:#fff;}.cls-2{fill:url(#linear-gradient);}.cls-3{fill:#606060;}.cls-19,.cls-3,.cls-4,.cls-6{opacity:0.1;}.cls-4{fill:url(#linear-gradient-2);}.cls-5{fill:url(#linear-gradient-3);}.cls-7{fill:#f2f2f2;}.cls-8{fill:#ff532c;}.cls-9{fill:#ffd34e;}.cls-10{fill:#baff5d;}.cls-11{fill:#e8e8e8;}.cls-12{fill:#f8e9a1;}.cls-13{fill:#dd6a70;}.cls-14{fill:#ffbb75;}.cls-15{fill:#f46a70;}.cls-16{fill:#a8d0e6;}.cls-17{fill:#93c6ff;}.cls-18{fill:#e0a567;}.cls-20{fill:#f76c6c;}.cls-21{fill:#d56a70;}.cls-22{opacity:0.2;}.cls-23{fill:#878361;}</style><linearGradient id="linear-gradient" x1="201.18" y1="1469.73" x2="2482.78" y2="1469.73" gradientUnits="userSpaceOnUse"><stop offset="0" stop-color="#a8d0e6"/><stop offset="1" stop-color="#a8d0e6"/></linearGradient><linearGradient id="linear-gradient-2" x1="321.98" y1="1493.2" x2="2452.05" y2="1493.2" gradientUnits="userSpaceOnUse"><stop offset="0" stop-color="#a8d0e6" stop-opacity="0.8"/><stop offset="0.35" stop-color="#a8d0e6" stop-opacity="0.9"/><stop offset="0.72" stop-color="#a8d0e6" stop-opacity="0.97"/><stop offset="1" stop-color="#a8d0e6"/></linearGradient><linearGradient id="linear-gradient-3" x1="265.93" y1="1531.2" x2="2534.07" y2="1531.2" gradientUnits="userSpaceOnUse"><stop offset="0" stop-color="#a8d0e6" stop-opacity="0.5"/><stop offset="0.98" stop-color="#a8d0e6"/></linearGradient></defs><title>task-icons</title><rect class="cls-1" width="2800" height="2800"/><path class="cls-2" d="M1863.74,2296a10,10,0,0,1-9.8-10.2h0a10,10,0,0,1,10.21-9.79h0a10,10,0,0,1,9.79,10.2h0a10,10,0,0,1-10,9.8h-.21Zm30.28-9.86a10,10,0,0,1,9.73-10.26h0a10,10,0,0,1,10.26,9.73h0a10,10,0,0,1-9.73,10.27H1904A10,10,0,0,1,1894,2286.16Zm-70.79,8.09h0a10,10,0,0,1-9.31-10.65h0a10,10,0,0,1,10.65-9.3h0a10,10,0,0,1,9.31,10.64h0a10,10,0,0,1-10,9.33h0Zm110.83-9.62a10,10,0,0,1,9.25-10.7h0a10,10,0,0,1,10.7,9.24h0a10,10,0,0,1-9.24,10.71h0c-.25,0-.5,0-.74,0h0A10,10,0,0,1,1934.06,2284.63Zm-151.2,5.93a10,10,0,0,1-8.79-11.08h0a10,10,0,0,1,11.08-8.79h0a10,10,0,0,1,8.79,11.08h0a10,10,0,0,1-9.93,8.86h0A9,9,0,0,1,1782.86,2290.56Zm191.13-9.31a10,10,0,0,1,8.74-11.12h0a10,10,0,0,1,11.12,8.74h0a10,10,0,0,1-8.74,11.12h0a9.66,9.66,0,0,1-1.2.07h0A10,10,0,0,1,1974,2281.25Zm-1437.83,4.23a10,10,0,0,1-10.16-9.84h0a10,10,0,0,1,9.84-10.16h0a10,10,0,0,1,10.16,9.84h0a10,10,0,0,1-9.84,10.16Zm1206.54-.54h0a10,10,0,0,1-8.24-11.5h0a10,10,0,0,1,11.49-8.24h0a10,10,0,0,1,8.25,11.49h0a10,10,0,0,1-9.86,8.38h0A9,9,0,0,1,1742.7,2284.94Zm271-8.92a10,10,0,0,1,8.21-11.51h0a10,10,0,0,1,11.51,8.21h0a10,10,0,0,1-8.21,11.51h0a9.46,9.46,0,0,1-1.66.14h0A10,10,0,0,1,2013.73,2276ZM494.1,2281.67h0a10,10,0,0,1-7.71-11.86h0a10,10,0,0,1,11.86-7.71h0A10,10,0,0,1,506,2274h0a10,10,0,0,1-9.77,7.93h0A9.87,9.87,0,0,1,494.1,2281.67Zm71.89-8.42a10,10,0,0,1,8.17-11.54h0a10,10,0,0,1,11.55,8.18h0a10,10,0,0,1-8.18,11.54h0a10.93,10.93,0,0,1-1.7.14h0A10,10,0,0,1,566,2273.25Zm1136.89,4.2a10,10,0,0,1-7.73-11.84h0a10,10,0,0,1,11.85-7.73h0a10,10,0,0,1,7.72,11.85h0a10,10,0,0,1-9.77,7.94h0A9.71,9.71,0,0,1,1702.88,2277.45Zm350.29-8.5a10,10,0,0,1,7.67-11.88h0a10,10,0,0,1,11.88,7.68h0a10,10,0,0,1-7.68,11.88h0a10.15,10.15,0,0,1-2.11.22h0A10,10,0,0,1,2053.17,2269Zm-1447.88-3.58a10,10,0,0,1,7-12.3h0a10,10,0,0,1,12.3,7h0a10,10,0,0,1-7,12.3h0a9.88,9.88,0,0,1-2.67.37h0A10,10,0,0,1,605.29,2265.37Zm1058.19,3h0a10,10,0,0,1-7.3-12.11h0a10,10,0,0,1,12.11-7.3h0a10,10,0,0,1,7.3,12.11h0a10,10,0,0,1-9.7,7.6h0A10.07,10.07,0,0,1,1663.48,2268.39Zm-1209.59-1.5a10,10,0,0,1-3.95-13.57h0a10,10,0,0,1,13.58-4h0a10,10,0,0,1,4,13.58h0a10,10,0,0,1-8.78,5.19h0A10,10,0,0,1,453.89,2266.89Zm1638.36-6.82a10,10,0,0,1,7.11-12.22h0a10,10,0,0,1,12.22,7.11h0a10,10,0,0,1-7.11,12.22h0a9.79,9.79,0,0,1-2.56.34h0A10,10,0,0,1,2092.25,2260.07ZM643.72,2254a10,10,0,0,1,6.16-12.73h0a10,10,0,0,1,12.73,6.16h0a10,10,0,0,1-6.16,12.73h0a9.92,9.92,0,0,1-3.28.56h0A10,10,0,0,1,643.72,2254Zm980.75,4.16a10,10,0,0,1-7-12.31h0a10,10,0,0,1,12.3-7h0a10,10,0,0,1,7,12.3h0a10,10,0,0,1-9.63,7.34h0A9.88,9.88,0,0,1,1624.47,2258.12Zm506.4-8.75a10,10,0,0,1,6.53-12.54h0a10,10,0,0,1,12.55,6.54h0a10,10,0,0,1-6.54,12.54h0a10.13,10.13,0,0,1-3,.46h0A10,10,0,0,1,2130.87,2249.37ZM1585.78,2247a10,10,0,0,1-6.75-12.43h0a10,10,0,0,1,12.43-6.75h0a10,10,0,0,1,6.75,12.43h0a10,10,0,0,1-9.59,7.16h0A10,10,0,0,1,1585.78,2247Zm-904.34-6.65a10,10,0,0,1,5.66-13h0a10,10,0,0,1,13,5.67h0a10,10,0,0,1-5.67,13h0a9.91,9.91,0,0,1-3.64.69h0A10,10,0,0,1,681.44,2240.35Zm-261.58.48h0a10,10,0,0,1,.19-14.14h0a10,10,0,0,1,14.14.19h0A10,10,0,0,1,434,2241h0a10,10,0,0,1-7,2.84h0A9.94,9.94,0,0,1,419.86,2240.83ZM2169,2236.88a10,10,0,0,1,5.94-12.83h0a10,10,0,0,1,12.83,5.93h0a10,10,0,0,1-5.93,12.84h0a10,10,0,0,1-3.45.62h0A10,10,0,0,1,2169,2236.88Zm-621.62-1.51a10,10,0,0,1-6.63-12.49h0a10,10,0,0,1,12.49-6.63h0a10,10,0,0,1,6.63,12.5h0a10,10,0,0,1-9.56,7.06h0A9.92,9.92,0,0,1,1547.33,2235.37Zm-828.64-9.85a10,10,0,0,1,5.47-13h0a10,10,0,0,1,13,5.47h0a10,10,0,0,1-5.47,13h0a9.91,9.91,0,0,1-3.78.75h0A10,10,0,0,1,718.69,2225.52Zm1487.7-2.91a10,10,0,0,1,5.32-13.1h0a10,10,0,0,1,13.11,5.32h0a10,10,0,0,1-5.32,13.1h0a9.91,9.91,0,0,1-3.89.79h0A10,10,0,0,1,2206.39,2222.61Zm-697.37,1a10,10,0,0,1-6.62-12.5h0a10,10,0,0,1,12.5-6.62h0a10,10,0,0,1,6.62,12.5h0A10,10,0,0,1,1512,2224h0A10,10,0,0,1,1509,2223.58ZM755.8,2210.33a10,10,0,0,1,5.6-13h0a10,10,0,0,1,13,5.59h0a10,10,0,0,1-5.59,13h0a10,10,0,0,1-3.69.71h0A10,10,0,0,1,755.8,2210.33Zm715,1.62a10,10,0,0,1-6.72-12.45h0a10,10,0,0,1,12.45-6.71h0a10,10,0,0,1,6.71,12.44h0a10,10,0,0,1-9.57,7.14h0A10.23,10.23,0,0,1,1470.75,2212Zm772.37-5.38a10,10,0,0,1,4.68-13.35h0a10,10,0,0,1,13.34,4.68h0a10,10,0,0,1-4.68,13.35h0a10,10,0,0,1-4.32,1h0A10,10,0,0,1,2243.12,2206.57Zm-1848.83.56c-.06-.09-.11-.19-.16-.28h0c-.05-.08-.1-.15-.14-.23h0a10,10,0,0,1,3.5-13.7h0a10,10,0,0,1,13.7,3.5h0l.15.27h0l.12.2h0a10,10,0,0,1-3.46,13.7h0a10,10,0,0,1-5.12,1.42h0A10,10,0,0,1,394.29,2207.13Zm398.89-11.34a10,10,0,0,1,6.21-12.7h0a10,10,0,0,1,12.7,6.21h0a10,10,0,0,1-6.21,12.71h0a10.25,10.25,0,0,1-3.25.54h0A10,10,0,0,1,793.18,2195.79Zm639.25,5h0a10,10,0,0,1-6.92-12.33h0a10,10,0,0,1,12.33-6.93h0a10,10,0,0,1,6.93,12.33h0a10,10,0,0,1-9.62,7.3h0A10.11,10.11,0,0,1,1432.43,2200.82ZM2279,2188.76a10,10,0,0,1,3.95-13.59h0a10,10,0,0,1,13.58,3.94h0a10,10,0,0,1-4,13.58h0a10,10,0,0,1-4.81,1.24h0A10,10,0,0,1,2279,2188.76Zm-1447.61-5a10,10,0,0,1,7.25-12.14h0a10,10,0,0,1,12.15,7.24h0a10,10,0,0,1-7.25,12.15h0a9.92,9.92,0,0,1-2.46.3h0A10,10,0,0,1,831.41,2183.79Zm562.55,6.73a10,10,0,0,1-7.24-12.15h0a10,10,0,0,1,12.15-7.24h0a10,10,0,0,1,7.24,12.15h0a10,10,0,0,1-9.68,7.55h0A10,10,0,0,1,1394,2190.52Zm-523.61-16.21a10,10,0,0,1,7.67-11.88h0a10,10,0,0,1,11.88,7.66h0a10,10,0,0,1-7.66,11.89h0a10.25,10.25,0,0,1-2.12.22h0A10,10,0,0,1,870.35,2174.31Zm484.94,7.08h0a10,10,0,0,1-7.65-11.9h0a10,10,0,0,1,11.9-7.64h0a10,10,0,0,1,7.65,11.89h0a10,10,0,0,1-9.76,7.88h0A9.8,9.8,0,0,1,1355.29,2181.39Zm-978.68-13.16h0a10,10,0,0,1,6.35-12.64h0a10,10,0,0,1,12.64,6.35h0a10,10,0,0,1-6.35,12.64h0a10.22,10.22,0,0,1-3.15.51h0A10,10,0,0,1,376.61,2168.23Zm533-2a10,10,0,0,1,8.08-11.61h0a10,10,0,0,1,11.6,8.08h0a10,10,0,0,1-8.07,11.61h0a9.82,9.82,0,0,1-1.78.16h0A10,10,0,0,1,909.6,2166.2Zm406.74,7.48a10,10,0,0,1-8.08-11.61h0a10,10,0,0,1,11.61-8.08h0a10,10,0,0,1,8.08,11.6h0a10,10,0,0,1-9.83,8.24h0A10.78,10.78,0,0,1,1316.34,2173.68Zm997.49-4.78a10,10,0,0,1,3-13.82h0a10,10,0,0,1,13.82,3h0a10,10,0,0,1-3,13.82h0a10,10,0,0,1-5.4,1.59h0A10,10,0,0,1,2313.83,2168.9ZM949.1,2159.47a10,10,0,0,1,8.48-11.31h0a10,10,0,0,1,11.32,8.47h0a10,10,0,0,1-8.48,11.32h0a10,10,0,0,1-1.43.11h0A10,10,0,0,1,949.1,2159.47Zm328,7.92a10,10,0,0,1-8.5-11.3h0a10,10,0,0,1,11.3-8.5h0a10,10,0,0,1,8.5,11.3h0a10,10,0,0,1-9.89,8.6h0A9.55,9.55,0,0,1,1277.14,2167.39Zm-288.32-13.26a10,10,0,0,1,8.87-11h0a10,10,0,0,1,11,8.87h0a10,10,0,0,1-8.87,11h0a10.09,10.09,0,0,1-1.09.06h0A10,10,0,0,1,988.82,2154.13Zm248.9,8.4a10,10,0,0,1-8.9-11h0a10,10,0,0,1,11-8.91h0a10,10,0,0,1,8.9,11h0a10,10,0,0,1-9.93,9h0A9.55,9.55,0,0,1,1237.72,2162.53Zm-209-12.35a10,10,0,0,1,9.25-10.7h0a10,10,0,0,1,10.7,9.26h0a10,10,0,0,1-9.25,10.69h0c-.25,0-.49,0-.74,0h0A10,10,0,0,1,1028.7,2150.18Zm169.46,8.92a10,10,0,0,1-9.29-10.66h0a10,10,0,0,1,10.66-9.29h0a10,10,0,0,1,9.29,10.66h0a10,10,0,0,1-10,9.31h0Zm-129.47-11.47a10,10,0,0,1,9.62-10.37h0a10,10,0,0,1,10.37,9.62h0a10,10,0,0,1-9.62,10.37h-.38A10,10,0,0,1,1068.69,2147.63Zm89.8,9.45a10,10,0,0,1-9.66-10.33h0a10,10,0,0,1,10.32-9.66h0a10,10,0,0,1,9.67,10.32h0a10,10,0,0,1-10,9.67h-.33Zm-49.74-10.6a10,10,0,0,1,10-10h0a10,10,0,0,1,10,10h0a10,10,0,0,1-10,10h0A10,10,0,0,1,1108.75,2146.48Zm1238.35.07a10,10,0,0,1,1.82-14h0a10,10,0,0,1,14,1.82h0a10,10,0,0,1-1.82,14h0a10,10,0,0,1-6.09,2.08h0A10,10,0,0,1,2347.1,2146.55Zm-1979.92-19a10,10,0,0,1,8.47-11.32h0a10,10,0,0,1,11.33,8.47h0A10,10,0,0,1,378.5,2136h0a11.59,11.59,0,0,1-1.43.1h0A10,10,0,0,1,367.18,2127.52Zm2011.05-6.19a10,10,0,0,1,.37-14.13h0a10,10,0,0,1,14.14.36h0a10,10,0,0,1-.37,14.14h0a9.94,9.94,0,0,1-6.88,2.75h0A10,10,0,0,1,2378.23,2121.33Zm-2014-35.08a10,10,0,0,1,9.9-10.1h0a10,10,0,0,1,10.09,9.91h0a10,10,0,0,1-9.9,10.09h-.1A10,10,0,0,1,364.18,2086.25Zm2042.31,6.68a10,10,0,0,1-1.33-14.08h0a10,10,0,0,1,14.08-1.33h0a10,10,0,0,1,1.33,14.08h0a10,10,0,0,1-7.71,3.62h0A10,10,0,0,1,2406.49,2092.93Zm24.47-31.74a10,10,0,0,1-3.31-13.74h0a10,10,0,0,1,13.75-3.32h0a10,10,0,0,1,3.32,13.75h0a10,10,0,0,1-8.54,4.78h0A9.92,9.92,0,0,1,2431,2061.19Zm-2056-5.1a10,10,0,0,1-9.09-10.83h0a10,10,0,0,1,10.83-9.09h0A10,10,0,0,1,385.8,2047h0a10,10,0,0,1-9.95,9.13h0A8.77,8.77,0,0,1,375,2056.09Zm2075.62-29.83a10,10,0,0,1-5.34-13.1h0a10,10,0,0,1,13.1-5.34h0a10,10,0,0,1,5.33,13.1h0a10,10,0,0,1-9.22,6.13h0A10,10,0,0,1,2450.59,2026.26Zm-2071.38-10a10,10,0,0,1-8.35-11.41h0a10,10,0,0,1,11.41-8.35h0a10,10,0,0,1,8.36,11.41h0a10,10,0,0,1-9.88,8.47h0A10.18,10.18,0,0,1,379.21,2016.24Zm2085.45-27.5a10,10,0,0,1-7.39-12h0a10,10,0,0,1,12.05-7.4h0a10,10,0,0,1,7.4,12.06h0A10,10,0,0,1,2467,1989h0A10,10,0,0,1,2464.66,1988.74Zm-2078.9-12a10,10,0,0,1-8-11.63h0a10,10,0,0,1,11.64-8h0a10,10,0,0,1,8,11.63h0a10,10,0,0,1-9.83,8.21h0A9.39,9.39,0,0,1,385.76,1976.7Zm2086.51-27.29a10,10,0,0,1-9.48-10.5h0a10,10,0,0,1,10.5-9.47h0a10,10,0,0,1,9.48,10.5h0a10,10,0,0,1-10,9.48h-.52ZM393,1937.28a10,10,0,0,1-8.17-11.54h0a10,10,0,0,1,11.55-8.17h0a10,10,0,0,1,8.17,11.54h0a10,10,0,0,1-9.85,8.32h0A9.85,9.85,0,0,1,393,1937.28ZM2460.89,1901a10,10,0,0,1,8.33-11.43h0a10,10,0,0,1,11.43,8.33h0a10,10,0,0,1-8.33,11.43h0a10.44,10.44,0,0,1-1.56.12h0A10,10,0,0,1,2460.89,1901Zm-2061.5-3.3a10,10,0,0,1-8.7-11.15h0a10,10,0,0,1,11.14-8.7h0a10,10,0,0,1,8.71,11.15h0a10,10,0,0,1-9.91,8.78h0A10.46,10.46,0,0,1,399.39,1897.72Zm2051.72-33.41h0a10,10,0,0,1,5.88-12.86h0a10,10,0,0,1,12.86,5.88h0a10,10,0,0,1-5.87,12.86h0a9.94,9.94,0,0,1-3.49.63h0A10,10,0,0,1,2451.11,1864.31Zm-2047.55-6.45a10,10,0,0,1-9.62-10.36h0a10,10,0,0,1,10.36-9.62h0a10,10,0,0,1,9.62,10.36h0a10,10,0,0,1-10,9.63h-.38Zm2031.33-28.59a10,10,0,0,1,4-13.56h0a10,10,0,0,1,13.57,4h0a10,10,0,0,1-4,13.57h0a9.94,9.94,0,0,1-4.78,1.22h0A10,10,0,0,1,2434.89,1829.27ZM393.09,1808.7a10,10,0,0,1,9.09-10.83h0A10,10,0,0,1,413,1807h0a10,10,0,0,1-9.09,10.83h0a8.77,8.77,0,0,1-.88,0h0A10,10,0,0,1,393.09,1808.7Zm2021.49-13.07a10,10,0,0,1,2.94-13.84h0a10,10,0,0,1,13.83,2.94h0a10,10,0,0,1-2.93,13.83h0a9.94,9.94,0,0,1-5.44,1.62h0A10,10,0,0,1,2414.58,1795.63Zm-2027.67-25a10,10,0,0,1,7.42-12h0a10,10,0,0,1,12,7.41h0a10,10,0,0,1-7.42,12h0a10.27,10.27,0,0,1-2.32.27h0A10,10,0,0,1,386.91,1770.65Zm2005.48-8.2a10,10,0,0,1,2.71-13.88h0a10,10,0,0,1,13.88,2.7h0a10,10,0,0,1-2.7,13.88h0a9.94,9.94,0,0,1-5.58,1.71h0A10,10,0,0,1,2392.39,1762.45ZM375.53,1733.6a10,10,0,0,1,5.86-12.87h0a10,10,0,0,1,12.87,5.86h0a10,10,0,0,1-5.86,12.87h0a10.07,10.07,0,0,1-3.51.64h0A10,10,0,0,1,375.53,1733.6Zm1994.78-5.09a10,10,0,0,1,3.29-13.76h0a10,10,0,0,1,13.75,3.28h0a10,10,0,0,1-3.28,13.76h0a10,10,0,0,1-5.23,1.48h0A10,10,0,0,1,2370.31,1728.51ZM360,1697.75h0a10,10,0,0,1,4.6-13.37h0A10,10,0,0,1,378,1689h0a10,10,0,0,1-4.6,13.38h0a10.09,10.09,0,0,1-4.38,1h0A10,10,0,0,1,360,1697.75Zm1990.42-5.08a10,10,0,0,1,4.53-13.39h0a10,10,0,0,1,13.4,4.54h0a10,10,0,0,1-4.54,13.39h0a10,10,0,0,1-4.42,1h0A10,10,0,0,1,2350.43,1692.67ZM341.5,1663h0a10,10,0,0,1,3.71-13.65h0a10,10,0,0,1,13.64,3.71h0a10,10,0,0,1-3.71,13.64h0a9.92,9.92,0,0,1-5,1.32h0A10,10,0,0,1,341.5,1663Zm1992.55-7.93a10,10,0,0,1,5.8-12.89h0a10,10,0,0,1,12.9,5.79h0a10,10,0,0,1-5.8,12.9h0a9.86,9.86,0,0,1-3.55.66h0A10,10,0,0,1,2334.05,1655.06ZM321,1629a10,10,0,0,1,3.18-13.78h0a10,10,0,0,1,13.78,3.17h0a10,10,0,0,1-3.18,13.77h0a9.88,9.88,0,0,1-5.29,1.53h0A10,10,0,0,1,321,1629Zm2000.27-12.89a10,10,0,0,1,7-12.3h0a10,10,0,0,1,12.3,7h0a10,10,0,0,1-7,12.3h0a10.2,10.2,0,0,1-2.66.36h0A10,10,0,0,1,2321.31,1616.1ZM299.56,1595.3a10,10,0,0,1,3-13.82h0a10,10,0,0,1,13.83,3h0a10,10,0,0,1-3,13.82h0a10,10,0,0,1-5.41,1.59h0A10,10,0,0,1,299.56,1595.3Zm2012.69-19.18h0a10,10,0,0,1,8.09-11.6h0a10,10,0,0,1,11.6,8.09h0a10,10,0,0,1-8.09,11.6h0a9.6,9.6,0,0,1-1.76.16h0A10,10,0,0,1,2312.25,1576.12ZM277.9,1561.42a10,10,0,0,1,3.14-13.79h0a10,10,0,0,1,13.79,3.14h0a10,10,0,0,1-3.14,13.79h0a10,10,0,0,1-5.31,1.53h0A10,10,0,0,1,277.9,1561.42Zm2029-25.94h0a10,10,0,0,1,9.12-10.8h0a10,10,0,0,1,10.8,9.13h0a10,10,0,0,1-9.12,10.8h0l-.85,0h0A10,10,0,0,1,2306.94,1535.48Zm-2050-8.67a10,10,0,0,1,3.64-13.66h0a10,10,0,0,1,13.67,3.64h0a10,10,0,0,1-3.64,13.66h0a9.9,9.9,0,0,1-5,1.35h0A10,10,0,0,1,256.9,1526.81Zm2058.42-22.2a10,10,0,0,1-9.91-10.1h0a10,10,0,0,1,10.1-9.91h0a10,10,0,0,1,9.9,10.1h0a10,10,0,0,1-10,9.9h-.09ZM237.55,1491h0a10,10,0,0,1,4.51-13.4h0a10,10,0,0,1,13.41,4.51h0a10,10,0,0,1-4.5,13.4h0a10,10,0,0,1-4.45,1h0A10,10,0,0,1,237.55,1491Zm2079.1-26.43a10,10,0,0,1-8.9-11h0a10,10,0,0,1,11-8.9h0a10,10,0,0,1,8.9,11h0a10,10,0,0,1-9.93,9h0A9.42,9.42,0,0,1,2316.65,1464.56ZM221,1453.48a10,10,0,0,1,5.75-12.92h0a10,10,0,0,1,12.92,5.75h0a10,10,0,0,1-5.75,12.92h0a9.82,9.82,0,0,1-3.58.67h0A10,10,0,0,1,221,1453.48Zm2100.83-28.66a10,10,0,0,1-7.8-11.8h0a10,10,0,0,1,11.8-7.79h0a10,10,0,0,1,7.8,11.79h0a10,10,0,0,1-9.79,8h0A9.88,9.88,0,0,1,2321.8,1424.82ZM208.53,1414.14a10,10,0,0,1,7.32-12.09h0a10,10,0,0,1,12.1,7.32h0a10,10,0,0,1-7.32,12.1h0a10.43,10.43,0,0,1-2.4.29h0A10,10,0,0,1,208.53,1414.14Zm2122-28.42a10,10,0,0,1-7-12.28h0a10,10,0,0,1,12.28-7h0a10,10,0,0,1,7,12.29h0a10,10,0,0,1-9.64,7.36h0A10,10,0,0,1,2330.58,1385.72Zm-2129-12.5a10,10,0,0,1,9.06-10.86h0a10,10,0,0,1,10.86,9.05h0a10,10,0,0,1-9.05,10.86h0c-.31,0-.62,0-.92,0h0A10,10,0,0,1,201.61,1373.22Zm2139.94-26.07a10,10,0,0,1-6.63-12.5h0a10,10,0,0,1,12.5-6.62h0a10,10,0,0,1,6.62,12.49h0a10,10,0,0,1-9.55,7.07h0A10,10,0,0,1,2341.55,1347.15Zm-2131.08-4.88a10,10,0,0,1-9.26-10.69h0a10,10,0,0,1,10.69-9.26h0a10,10,0,0,1,9.26,10.69h0a10,10,0,0,1-10,9.29h0Zm2142.94-33.42a10,10,0,0,1-6.62-12.5h0a10,10,0,0,1,12.49-6.61h0a10,10,0,0,1,6.62,12.5h0a10,10,0,0,1-9.55,7.06h0A10.06,10.06,0,0,1,2353.41,1308.85Zm-2138.47-6.37a10,10,0,0,1-7.48-12h0a10,10,0,0,1,12-7.47h0a10,10,0,0,1,7.47,12h0a10,10,0,0,1-9.73,7.74h0A10.4,10.4,0,0,1,214.94,1302.48Zm2150.08-32a10,10,0,0,1-7-12.3h0a10,10,0,0,1,12.3-7h0a10,10,0,0,1,7,12.3h0a10,10,0,0,1-9.64,7.34h0A9.79,9.79,0,0,1,2365,1270.49Zm-2139.56-6.64a10,10,0,0,1-5.68-12.95h0a10,10,0,0,1,12.95-5.67h0a10,10,0,0,1,5.68,13h0a10,10,0,0,1-9.32,6.36h0A10.06,10.06,0,0,1,225.46,1263.85Zm2149.72-32.11a10,10,0,0,1-7.74-11.84h0a10,10,0,0,1,11.84-7.74h0A10,10,0,0,1,2387,1224h0a10,10,0,0,1-9.78,8h0A10.36,10.36,0,0,1,2375.18,1231.74Zm-2133.94-4.68a10,10,0,0,1-4-13.57h0a10,10,0,0,1,13.56-4h0a10,10,0,0,1,4,13.57h0a10,10,0,0,1-8.79,5.21h0A9.94,9.94,0,0,1,241.24,1227.06Zm20.18-34.58a10,10,0,0,1-2.48-13.93h0a10,10,0,0,1,13.92-2.47h0a10,10,0,0,1,2.48,13.92h0a10,10,0,0,1-8.21,4.28h0A10,10,0,0,1,261.42,1192.48Zm2121.08-.14a10,10,0,0,1-8.94-11h0a10,10,0,0,1,11-8.94h0a10,10,0,0,1,8.95,11h0a10,10,0,0,1-9.94,9h0C2383.18,1192.39,2382.84,1192.37,2382.5,1192.34ZM285.16,1160.23a10,10,0,0,1-1.13-14.1h0a10,10,0,0,1,14.1-1.13h0a10,10,0,0,1,1.13,14.1h0a10,10,0,0,1-7.62,3.51h0A10,10,0,0,1,285.16,1160.23Zm2089.47-17.31a10,10,0,0,1,9.44-10.53h0a10,10,0,0,1,10.53,9.44h0a10,10,0,0,1-9.44,10.53h-.56A10,10,0,0,1,2374.63,1142.92ZM311.8,1130.31a10,10,0,0,1,.07-14.14h0a10,10,0,0,1,14.15.07h0a10,10,0,0,1-.07,14.14h0a10,10,0,0,1-7,2.89h0A10,10,0,0,1,311.8,1130.31Zm2057-24.91a10,10,0,0,1,7.1-12.23h0a10,10,0,0,1,12.23,7.11h0a10,10,0,0,1-7.11,12.23h0a10.28,10.28,0,0,1-2.56.33h0A10,10,0,0,1,2368.84,1105.4Zm-2028-2.73a10,10,0,0,1,1.15-14.09h0a10,10,0,0,1,14.09,1.14h0a10,10,0,0,1-1.14,14.1h0a10,10,0,0,1-6.47,2.38h0A10,10,0,0,1,340.83,1102.67Zm31-25.41a10,10,0,0,1,2.12-14h0a10,10,0,0,1,14,2.12h0a10,10,0,0,1-2.13,14h0a10,10,0,0,1-5.92,1.94h0A10,10,0,0,1,371.85,1077.26Zm1983.27-7a10,10,0,0,1,4.17-13.52h0a10,10,0,0,1,13.51,4.17h0a10,10,0,0,1-4.17,13.51h0a9.93,9.93,0,0,1-4.66,1.16h0A10,10,0,0,1,2355.12,1070.27ZM404.56,1054a10,10,0,0,1,3.05-13.81h0a10,10,0,0,1,13.81,3h0a10,10,0,0,1-3.06,13.81h0a9.93,9.93,0,0,1-5.36,1.57h0A10,10,0,0,1,404.56,1054Zm1929.17-14.66a10,10,0,0,1,.85-14.11h0a10,10,0,0,1,14.12.85h0a10,10,0,0,1-.86,14.12h0a10,10,0,0,1-6.62,2.51h0A10,10,0,0,1,2333.73,1039.37Zm-1895-6.32a10,10,0,0,1,3.86-13.61h0a10,10,0,0,1,13.6,3.86h0a10,10,0,0,1-3.85,13.6h0a9.88,9.88,0,0,1-4.87,1.28h0A10,10,0,0,1,438.7,1033.05ZM1685.22,1031a10,10,0,0,1-9.77-10.22h0a10,10,0,0,1,10.22-9.77h0a10,10,0,0,1,9.77,10.22h0a10,10,0,0,1-10,9.77h-.23Zm30.3-10.07a10,10,0,0,1,9.51-10.46h0a10,10,0,0,1,10.47,9.5h0a10,10,0,0,1-9.51,10.47h-.48A10,10,0,0,1,1715.52,1020.92Zm-71.11,7.5h0a10,10,0,0,1-8.89-11h0a10,10,0,0,1,11-8.89h0a10,10,0,0,1,8.9,11h0a10,10,0,0,1-9.94,9h0A9.51,9.51,0,0,1,1644.41,1028.42Zm111.11-10.06a10,10,0,0,1,8.85-11h0a10,10,0,0,1,11,8.86h0a10,10,0,0,1-8.86,11h0a10.09,10.09,0,0,1-1.09.06h0A10,10,0,0,1,1755.52,1018.36Zm-151.66,3.81a10,10,0,0,1-7.79-11.8h0a10,10,0,0,1,11.81-7.79h0a10,10,0,0,1,7.78,11.81h0a10,10,0,0,1-9.78,8h0A10,10,0,0,1,1603.86,1022.17Zm191.43-8.72a10,10,0,0,1,8.3-11.44h0a10,10,0,0,1,11.45,8.3h0a10,10,0,0,1-8.31,11.45h0a10.63,10.63,0,0,1-1.58.13h0A10,10,0,0,1,1795.29,1013.45Zm-1321.4.42a10,10,0,0,1,4.36-13.45h0a10,10,0,0,1,13.45,4.36h0a10,10,0,0,1-4.36,13.45h0a9.9,9.9,0,0,1-4.54,1.1h0A10,10,0,0,1,473.89,1013.87Zm1831.78.24a10,10,0,0,1-2.26-14h0a10,10,0,0,1,14-2.25h0a10,10,0,0,1,2.26,14h0a10,10,0,0,1-8.12,4.14h0A9.92,9.92,0,0,1,2305.67,1014.11Zm-470.87-7.32a10,10,0,0,1,7.93-11.71h0a10,10,0,0,1,11.71,7.92h0a10,10,0,0,1-7.92,11.71h0a9.66,9.66,0,0,1-1.91.19h0A10,10,0,0,1,1834.8,1006.79Zm-270.76,4.9a10,10,0,0,1-6.41-12.61h0a10,10,0,0,1,12.61-6.41h0a10,10,0,0,1,6.41,12.61h0a10,10,0,0,1-9.51,6.9h0A10.13,10.13,0,0,1,1564,1011.69ZM1874.11,999a10,10,0,0,1,7.69-11.86h0a10,10,0,0,1,11.87,7.69h0a10,10,0,0,1-7.7,11.87h0a10,10,0,0,1-2.1.22h0A10,10,0,0,1,1874.11,999Zm-1364.4-3a10,10,0,0,1,4.71-13.34h0a10,10,0,0,1,13.34,4.71h0a10,10,0,0,1-4.71,13.34h0a10,10,0,0,1-4.31,1h0A10,10,0,0,1,509.71,995.92Zm1403.57-5.42a10,10,0,0,1,7.62-11.91h0a10,10,0,0,1,11.91,7.62h0a10,10,0,0,1-7.62,11.91h0a9.93,9.93,0,0,1-2.16.24h0A10,10,0,0,1,1913.28,990.5Zm-387.65,5.94a10,10,0,0,1-4.74-13.33h0a10,10,0,0,1,13.32-4.74h0a10,10,0,0,1,4.75,13.32h0a10,10,0,0,1-9,5.71h0A10.09,10.09,0,0,1,1525.63,996.44Zm747.09-1.59a10,10,0,0,1-4.79-13.31h0a10,10,0,0,1,13.3-4.79h0a10,10,0,0,1,4.79,13.31h0a10,10,0,0,1-9.05,5.74h0A10,10,0,0,1,2272.72,994.85Zm-320.29-12.92a10,10,0,0,1,7.7-11.86h0a10,10,0,0,1,11.86,7.7h0a10,10,0,0,1-7.7,11.86h0a10,10,0,0,1-2.09.22h0A10,10,0,0,1,1952.43,981.93ZM546,978.8a10,10,0,0,1,4.91-13.26h0a10,10,0,0,1,13.26,4.91h0a10,10,0,0,1-4.91,13.26h0a9.83,9.83,0,0,1-4.17.92h0A10,10,0,0,1,546,978.8Zm1445.71-5a10,10,0,0,1,7.94-11.69h0a10,10,0,0,1,11.71,8h0a10,10,0,0,1-8,11.7h0a10.08,10.08,0,0,1-1.89.18h0A10,10,0,0,1,1991.66,973.75Zm245,7.44a10,10,0,0,1-6.72-12.45h0A10,10,0,0,1,2242.4,962h0a10,10,0,0,1,6.72,12.44h0a10,10,0,0,1-9.58,7.14h0A10.23,10.23,0,0,1,2236.67,981.19Zm-747.15-5.07a10,10,0,0,1-2.85-13.85h0a10,10,0,0,1,13.86-2.85h0a10,10,0,0,1,2.84,13.85h0a10,10,0,0,1-8.36,4.5h0A10,10,0,0,1,1489.52,976.12Zm541.55-9.61a10,10,0,0,1,8.33-11.43h0a10,10,0,0,1,11.43,8.34h0a10,10,0,0,1-8.33,11.42h0a10.25,10.25,0,0,1-1.56.12h0A10,10,0,0,1,2031.07,966.51Zm167.76,5.91a10,10,0,0,1-8.18-11.55h0a10,10,0,0,1,11.55-8.17h0a10,10,0,0,1,8.17,11.54h0a10,10,0,0,1-9.85,8.32h0A9.72,9.72,0,0,1,2198.83,972.42Zm-128.1-11.69a10,10,0,0,1,8.86-11h0a10,10,0,0,1,11,8.86h0a10,10,0,0,1-8.87,11h0a10,10,0,0,1-1.09.06h0A10,10,0,0,1,2070.73,960.73ZM582.4,962.14a10,10,0,0,1,5-13.25h0a10,10,0,0,1,13.24,5h0a10,10,0,0,1-5,13.25h0a10,10,0,0,1-4.13.9h0A10,10,0,0,1,582.4,962.14ZM2160,967.86a10,10,0,0,1-9.31-10.64h0a10,10,0,0,1,10.65-9.31h0a10,10,0,0,1,9.31,10.65h0a10,10,0,0,1-10,9.33h0C2160.49,967.89,2160.26,967.88,2160,967.86Zm-39.17-.84a10,10,0,0,1-10.22-9.76h0a10,10,0,0,1,9.77-10.23h0a10,10,0,0,1,10.23,9.77h0a10,10,0,0,1-9.78,10.23h0C2115.35,967.15,2120.87,967,2120.87,967ZM1456.6,951.19a10,10,0,0,1-1.08-14.1h0a10,10,0,0,1,14.1-1.08h0a10,10,0,0,1,1.08,14.1h0a10,10,0,0,1-7.6,3.49h0A10,10,0,0,1,1456.6,951.19Zm-837.73-5.68a10,10,0,0,1,4.87-13.27h0A10,10,0,0,1,637,937.11h0a10,10,0,0,1-4.88,13.27h0a9.93,9.93,0,0,1-4.19.93h0A10,10,0,0,1,618.87,945.51Zm36.31-17a10,10,0,0,1,4.63-13.37h0a10,10,0,0,1,13.36,4.64h0a10,10,0,0,1-4.63,13.36h0a10,10,0,0,1-4.36,1h0A10,10,0,0,1,655.18,928.54Zm771.69-5.61h0a10,10,0,0,1,.3-14.14h0a10,10,0,0,1,14.14.29h0a10,10,0,0,1-.3,14.14h0a10,10,0,0,1-6.92,2.78h0A10,10,0,0,1,1426.87,922.93ZM691.13,910.81a10,10,0,0,1,4.24-13.49h0a10,10,0,0,1,13.49,4.24h0a10,10,0,0,1-4.24,13.49h0a10,10,0,0,1-4.62,1.14h0A10,10,0,0,1,691.13,910.81Zm35.36-18.87a10,10,0,0,1,3.68-13.65h0A10,10,0,0,1,743.83,882h0a10,10,0,0,1-3.69,13.65h0a10,10,0,0,1-5,1.33h0A10,10,0,0,1,726.49,891.94Zm673.23.62a10,10,0,0,1,1.22-14.09h0a10,10,0,0,1,14.09,1.22h0a10,10,0,0,1-1.22,14.09h0a10,10,0,0,1-6.43,2.35h0A10,10,0,0,1,1399.72,892.56ZM761,871.55a10,10,0,0,1,3-13.82h0a10,10,0,0,1,13.82,3h0a10,10,0,0,1-3,13.82h0a9.9,9.9,0,0,1-5.42,1.61h0A10,10,0,0,1,761,871.55Zm613.36-10.48a10,10,0,0,1,1.73-14h0a10,10,0,0,1,14,1.73h0a10,10,0,0,1-1.74,14h0a9.91,9.91,0,0,1-6.14,2.12h0A10,10,0,0,1,1374.34,861.07Zm-580-11.76a10,10,0,0,1,2.09-14h0a10,10,0,0,1,14,2.09h0a10,10,0,0,1-2.09,14h0a10,10,0,0,1-5.94,2h0A10,10,0,0,1,794.29,849.31Zm555.54-20.06h0a10,10,0,0,1,1.84-14h0a10,10,0,0,1,14,1.85h0a10,10,0,0,1-1.84,14h0a10,10,0,0,1-6.08,2.06h0A10,10,0,0,1,1349.83,829.25Zm-523.74-4.33a10,10,0,0,1,1.3-14.09h0a10,10,0,0,1,14.08,1.3h0a10,10,0,0,1-1.3,14.08h0a9.89,9.89,0,0,1-6.38,2.31h0A10,10,0,0,1,826.09,824.92ZM856.68,799a10,10,0,0,1,.92-14.11h0a10,10,0,0,1,14.12.93h0a10,10,0,0,1-.93,14.11h0a9.94,9.94,0,0,1-6.59,2.48h0A9.94,9.94,0,0,1,856.68,799Zm468.65-1.24a10,10,0,0,1,1.57-14h0a10,10,0,0,1,14.06,1.58h0a10,10,0,0,1-1.57,14.06h0a10,10,0,0,1-6.24,2.18h0A10,10,0,0,1,1325.33,797.78ZM886.77,772.53a10,10,0,0,1,.92-14.11h0a10,10,0,0,1,14.11.93h0a10,10,0,0,1-.93,14.11h0a10,10,0,0,1-6.59,2.48h0A9.94,9.94,0,0,1,886.77,772.53Zm413.12-5a10,10,0,0,1,.77-14.13h0a10,10,0,0,1,14.12.77h0a10,10,0,0,1-.77,14.12h0a9.92,9.92,0,0,1-6.67,2.56h0A10,10,0,0,1,1299.89,767.57ZM917,746.22a10,10,0,0,1,1.28-14.08h0a10,10,0,0,1,14.08,1.28h0a10,10,0,0,1-1.28,14.08h0a10,10,0,0,1-6.39,2.32h0A10,10,0,0,1,917,746.22Zm355.54-6.92a10,10,0,0,1-.34-14.13h0a10,10,0,0,1,14.14-.34h0a10,10,0,0,1,.34,14.14h0a10,10,0,0,1-7.24,3.1h0A10,10,0,0,1,1272.58,739.3ZM948.11,720.9a10,10,0,0,1,2-14h0a10,10,0,0,1,14,2h0a10,10,0,0,1-2,14h0a10,10,0,0,1-6,2h0A10,10,0,0,1,948.11,720.9Zm294.94-7.15a10,10,0,0,1-1.76-14h0a10,10,0,0,1,14-1.76h0a10,10,0,0,1,1.76,14h0a10,10,0,0,1-7.9,3.86h0A9.94,9.94,0,0,1,1243.05,713.75ZM980.67,697.53a10,10,0,0,1,3.24-13.77h0A10,10,0,0,1,997.67,687h0a10,10,0,0,1-3.23,13.77h0a9.92,9.92,0,0,1-5.26,1.5h0A10,10,0,0,1,980.67,697.53ZM1211.05,692h0a10,10,0,0,1-3.58-13.68h0a10,10,0,0,1,13.68-3.58h0a10,10,0,0,1,3.58,13.68h0a10,10,0,0,1-8.64,5h0A9.91,9.91,0,0,1,1211.05,692Zm-195.74-14.56a10,10,0,0,1,5-13.24h0a10,10,0,0,1,13.25,5h0a10,10,0,0,1-5,13.25h0a10,10,0,0,1-4.14.9h0A10,10,0,0,1,1015.31,677.39Zm161.2-2.09a10,10,0,0,1-5.81-12.9h0a10,10,0,0,1,12.9-5.8h0a10,10,0,0,1,5.8,12.89h0a10,10,0,0,1-9.35,6.46h0A10,10,0,0,1,1176.51,675.3Zm-124.14-13.07A10,10,0,0,1,1059.5,650h0a10,10,0,0,1,12.21,7.13h0a10,10,0,0,1-7.13,12.21h0a9.7,9.7,0,0,1-2.55.33h0A10,10,0,0,1,1052.37,662.23Zm87.48,3.16h0a10,10,0,0,1-8.27-11.47h0a10,10,0,0,1,11.47-8.27h0a10,10,0,0,1,8.27,11.47h0a10,10,0,0,1-9.86,8.4h0A9.8,9.8,0,0,1,1139.85,665.39ZM1091.52,654a10,10,0,0,1,9.45-10.52h0a10,10,0,0,1,10.52,9.44h0a10,10,0,0,1-9.44,10.53h-.55A10,10,0,0,1,1091.52,654Z"/><ellipse class="cls-3" cx="2129.92" cy="2458.84" rx="488.7" ry="55.5"/><path class="cls-4" d="M1160,916.13c58.67-27.71,106-74,156-115.42a1139.35,1139.35,0,0,1,473.79-232.94c85.48-19.3,181.21-27,255.11,20.11,82.52,52.57,114,160,109.77,257.75s-37,191.77-54,288.11-16.2,202.82,39.62,283.17c43.76,63,114.4,100.45,177.58,143.91s125,102.3,133.28,178.53c9.72,89.6-58.9,170.08-136.09,216.6s-166.2,71.56-241.11,121.66c-70.64,47.25-125.17,114.34-186.59,173.09S1752,2362.28,1667.23,2369c-156.82,12.41-290-134-447.29-133.16-106,.56-198.21,67.44-290.89,119-89.52,49.8-190.59,87.88-292.45,77s-202.44-82.23-220.07-183.14c-29-166,163.72-314.91,125-478.89-28-118.76-155.61-178.34-199.25-289.51-39.08-99.54-16.73-238.44,24.4-335.7,66.64-157.61,256-231.64,402.74-295.16C931.63,779.24,985.89,998.37,1160,916.13Z"/><path class="cls-5" d="M987,955.17c-96-24.89-188.27-63-285.06-84.43s-201.84-25-291.42,17.47-157.86,140-142.37,237.94C289.66,1262.21,455,1353.58,445.26,1491c-5,70.26-55.75,127.15-95.08,185.58C306.36,1741.68,275,1829.3,315.5,1896.5c30,49.7,91.92,74,119.84,124.93,43.25,78.81-13.81,178.93,9.75,265.69,23.64,87,123.78,133.82,213.9,130.28s173.78-44.42,257.45-78.07,176.24-60.9,263-36.31c96.39,27.32,171.31,115.06,271,124.76,129.75,12.63,229.47-108.26,349-160.38,168.17-73.34,373.45-7,539.94-84.1,145.52-67.38,227.5-248.3,182.2-402.13-68.28-231.93-366.3-349.68-405.66-588.23-20.67-125.29,37.55-258.48-4.53-378.29-36.18-103-143.47-170.62-252.26-179.71s-217,32.7-306.66,94.92C1462.32,792.4,1398.64,897.59,1305,951.75,1216,1003.28,1079.93,979.29,987,955.17Z"/><path class="cls-6" d="M2339.39,2183.3c89.75-41.55,155.3-126.29,181.76-221.22a153.55,153.55,0,0,1-32.42-18.7c-54.43-41.44-88.73-105-143.31-146.28-93.87-70.95-242.32-54.18-318,35.94-32.75,39-51.79,87.6-80.77,129.49s-74.07,79.06-124.88,75.51c-75.93-5.29-115.33-92.11-131.86-166.41s-35.31-161.81-104.88-192.7c-79-35.07-166.36,28.72-219.9,96.54s-104.38,150.14-188.56,169.61c-81.1,18.76-164.53-31.13-215.49-96.95s-78.39-146.26-115.65-220.7c-26.16-52.26-62.61-106-119-121.51-69.86-19.19-140.35,28-190.46,80.34-93.35,97.5-154.72,223.43-179.25,356.06,28.56,24.6,60.61,46.35,78.58,79.11,43.25,78.82-13.81,178.93,9.75,265.69,23.64,87,123.78,133.82,213.9,130.28s173.78-44.42,257.45-78.07,176.24-60.9,263-36.31c96.39,27.32,171.31,115.06,271,124.76,129.75,12.63,229.47-108.26,349-160.38C1967.62,2194.06,2172.9,2260.38,2339.39,2183.3Z"/><rect class="cls-7" x="532.63" y="1067.05" width="1495.23" height="971.03" rx="73.32" ry="73.32"/><path d="M1954.55,1067.05H605.94a73.31,73.31,0,0,0-73.31,73.31v52.58H2027.86v-52.58A73.31,73.31,0,0,0,1954.55,1067.05Z"/><circle class="cls-8" cx="650.03" cy="1129.99" r="20.23" transform="translate(-387.04 340.12) rotate(-22.8)"/><circle class="cls-9" cx="725.4" cy="1129.99" r="20.23" transform="translate(-558.25 735.89) rotate(-40.23)"/><circle class="cls-10" cx="800.77" cy="1129.99" r="20.23" transform="translate(-481.92 1652.33) rotate(-76.83)"/><rect class="cls-11" x="629.79" y="1271.43" width="115.84" height="680.25" rx="23.92" ry="23.92"/><rect class="cls-11" x="800.77" y="1271.43" width="929.36" height="680.25" rx="44.23" ry="44.23"/><rect class="cls-11" x="1800.4" y="1271.43" width="172.34" height="680.25" rx="44.23" ry="44.23"/><polygon class="cls-12" points="2093.72 2397.58 2042.1 2446.61 2148.14 2446.61 2135.61 2397.58 2093.72 2397.58"/><path class="cls-13" d="M2079.71,1399.87c-52.9,33.82-83.24,95.21-93.43,157.16s-2.71,125.3,5.35,187.56q40,308.76,98.7,614.7c2.2,11.48,2.23,26.66,3.39,38.29h41.89c17.54-137.82,31.09-280.81,48.63-418.63,12.57-98.74,25.16-198.53,14.93-297.54S2150.53,1469.81,2079.71,1399.87Z"/><path class="cls-14" d="M2229.55,1085.48c66.29,9.58,115.66,67.77,142.48,129.15,22.29,51,33.47,106.17,51.61,158.76a52.76,52.76,0,0,1-13.44,55.32c-45.87,43.92-100.29,102.89-135.18,146.12-8.49-7.82.44-35.49-8.05-43.3,38-45.65,67.85-100.47,92.38-154.53-39.29-50-73.44-108.11-100.38-165.74C2241.34,1173.54,2238.44,1126.16,2229.55,1085.48Z"/><path class="cls-15" d="M2042.1,1427.32c.28,109.57,39.19,214.93,58.15,322.85,38.23,217.56-5.05,442.23,23,661.33h52.53c16.67-267.55,114.8-531.15,115.5-799.22.06-21.06-.75-43-10.56-61.62-17.76-33.71-21.12-77.94-31.7-114.55C2187.64,1417.21,2105.29,1415.64,2042.1,1427.32Z"/><path class="cls-16" d="M2142.6,1025.18c-31.24,14-62.59,28.61-89.9,49.29s-50.59,48.16-60.46,81c-13.91,46.21.19,95.89,17,141.12s36.81,91.25,34.67,139.46c67.35,20.33,143.43,32.19,213.79,32.09,23.87-79.87,42.42-164.58,48.44-247.73,2.17-30,3-61.17-8.75-88.85-12.34-29.17-37.58-51.37-65.59-66.16S2173.23,1033.24,2142.6,1025.18Z"/><path class="cls-16" d="M2372,1214.63c-26.82-61.38-76.19-119.57-142.48-129.15,8.89,40.68,11.79,88.06,29.42,125.78a912.7,912.7,0,0,0,68.34,121.53,243.09,243.09,0,0,0,58.44-82.72C2381.61,1238.1,2377.11,1226.25,2372,1214.63Z"/><path class="cls-14" d="M2058.3,1083.77c-66,38.46-108.84,108.37-130.56,181.57s-24.69,150.46-27.51,226.76c9,10.91,24,14.35,37.65,11s25.47-11.93,36.55-20.67a575.14,575.14,0,0,0,129.11-143.26c-10-9.75-22.51-20.62-32.53-30.36-20.28,29.77-54,55.67-86.14,71.89a676.17,676.17,0,0,1,100.8-190.43C2107.91,1160.81,2078.36,1114.71,2058.3,1083.77Z"/><path class="cls-16" d="M1927.74,1265.34c-1.09,3.69-2.12,7.38-3.12,11.09a214.38,214.38,0,0,0,75.13,64.51,676.52,676.52,0,0,1,85.92-150.72c22.24-29.41-7.31-75.51-27.37-106.45C1992.33,1122.23,1949.46,1192.14,1927.74,1265.34Z"/><rect class="cls-12" x="2093.12" y="1172.12" width="73.59" height="137.53" rx="12.96" ry="12.96"/><path class="cls-14" d="M2069.44,1312.64l-2-21.13c-.25-2.73-.5-5.53.27-8.16,1.14-3.92,4.43-6.93,8.11-8.7s7.77-2.48,11.8-3.16a103.79,103.79,0,0,1,34.77-35.5c4.25-2.6,9.19-5,14-3.83,5.92,1.37,9.48,7.37,11.63,13a74.4,74.4,0,0,1-59.62,100.11C2079.32,1334.29,2070.75,1326.93,2069.44,1312.64Z"/><path class="cls-17" d="M2308.57,1124.11a175.1,175.1,0,0,0-28.57-20.8c-13.06-15.68-30-28.37-48.18-38-28-14.78-58.59-32.12-89.22-40.18-31.24,14-62.59,28.61-89.9,49.29a211.1,211.1,0,0,0-18.9,16.12c.28,7.33,2.41,14.18,7.43,19.86,12.65,14.33,35.08,11.5,54.08,13.63,29.13,3.25,54.66,20.52,82.76,28.86a139.72,139.72,0,0,0,103.27-10A136.75,136.75,0,0,0,2308.57,1124.11Z"/><path class="cls-18" d="M2134.06,954.61a415.77,415.77,0,0,0-21.37,111.58c18.81,21.29,56.57,26.56,79.43,9.7-3.72-31.83-2.27-70.14-1.51-102.19C2174.15,968.44,2150.52,959.87,2134.06,954.61Z"/><path class="cls-14" d="M2116.66,917.92a184.15,184.15,0,0,0,39,138.51c20.9-4.8,47.15-16.7,60.69-33.34s22.52-36.59,28.74-57.12c5.12-16.9,8.47-35.07,4-52.16-7.23-27.63-35.83-47.33-64.38-46.37S2120.43,889.61,2116.66,917.92Z"/><path d="M2094.56,952.15a79.29,79.29,0,0,0,59.8-37.86c-1.2,14.19,11,30.05,25.28,30.23,8.56.1,17.65-3.91,25.33-.13,5.94,2.92,8.94,9.65,10.49,16.09s2.16,13.24,5.37,19c5.63,10.16,18.22,14.81,29.83,14.28s22.53-5.31,33.15-10c3.42-22.25,2.52-42.21-.73-64.49s-14.26-44.52-33.65-55.95c-13.19-7.78-28.94-9.89-44.24-10.5-30.51-1.21-62.7,3.57-87.05,22S2081.59,924.5,2094.56,952.15Z"/><polygon class="cls-12" points="2123.29 2411.51 2092.13 2458.84 2231.07 2458.84 2175.82 2411.51 2123.29 2411.51"/><rect class="cls-19" x="201.24" y="1316.64" width="769.23" height="521.23" rx="102.86" ry="102.86"/><rect class="cls-1" x="170.42" y="1264.03" width="769.23" height="521.23" rx="102.86" ry="102.86"/><rect class="cls-19" x="1083.91" y="720.3" width="769.23" height="521.23" rx="102.86" ry="102.86"/><rect class="cls-1" x="1053.09" y="667.69" width="769.23" height="521.23" rx="102.86" ry="102.86"/><rect class="cls-19" x="1093.91" y="1957.21" width="769.23" height="521.23" rx="102.86" ry="102.86"/><rect class="cls-1" x="1063.09" y="1904.6" width="769.23" height="521.23" rx="102.86" ry="102.86"/><path class="cls-12" d="M1580,746.58c-106.92,0-193.59,75-193.59,167.59,0,32.37,10.61,62.6,29,88.23l-34.77,79.35,88-30.47c31.49,19.19,69.89,30.47,111.33,30.47,106.92,0,193.59-75,193.59-167.58S1687,746.58,1580,746.58Z"/><path class="cls-19" d="M1312,813.16H1132.64A21.14,21.14,0,0,1,1111.5,792h0a21.14,21.14,0,0,1,21.14-21.13H1312A21.13,21.13,0,0,1,1333.14,792h0A21.13,21.13,0,0,1,1312,813.16Z"/><rect class="cls-19" x="1111.5" y="865.83" width="221.64" height="42.27" rx="21.13" ry="21.13"/><path class="cls-19" d="M1312,1003H1132.64a21.14,21.14,0,0,1-21.14-21.13h0a21.14,21.14,0,0,1,21.14-21.14H1312a21.13,21.13,0,0,1,21.13,21.14h0A21.13,21.13,0,0,1,1312,1003Z"/><path class="cls-19" d="M1312,1098H1132.64a21.15,21.15,0,0,1-21.14-21.14h0a21.14,21.14,0,0,1,21.14-21.13H1312a21.13,21.13,0,0,1,21.13,21.13h0A21.14,21.14,0,0,1,1312,1098Z"/><path class="cls-19" d="M844.78,1409.93H665.41a21.13,21.13,0,0,1-21.14-21.13h0a21.13,21.13,0,0,1,21.14-21.14H844.78a21.13,21.13,0,0,1,21.13,21.14h0A21.13,21.13,0,0,1,844.78,1409.93Z"/><path class="cls-19" d="M844.78,1504.87H665.41a21.14,21.14,0,0,1-21.14-21.14h0a21.13,21.13,0,0,1,21.14-21.13H844.78a21.13,21.13,0,0,1,21.13,21.13h0A21.14,21.14,0,0,1,844.78,1504.87Z"/><rect class="cls-19" x="644.27" y="1557.53" width="221.64" height="42.27" rx="21.13" ry="21.13"/><rect class="cls-19" x="644.27" y="1652.47" width="221.64" height="42.27" rx="21.13" ry="21.13"/><circle class="cls-20" cx="2410.68" cy="666.69" r="32.99" transform="translate(234.65 1899.88) rotate(-45)"/><circle class="cls-20" cx="931.68" cy="453.33" r="57.49"/><circle class="cls-21" cx="440.88" cy="691.07" r="27.83"/><circle class="cls-21" cx="186.88" cy="950.63" r="16.46" transform="translate(-781.19 912.47) rotate(-76.62)"/><circle class="cls-21" cx="199.33" cy="2175.37" r="28.91"/><circle class="cls-20" cx="896.82" cy="2481.47" r="22.62"/><circle class="cls-20" cx="2545.34" cy="1397.57" r="24.19" transform="matrix(0.23, -0.97, 0.97, 0.23, 600.35, 3553.73)"/><circle class="cls-21" cx="1709.88" cy="404.78" r="24.43"/><circle class="cls-20" cx="402.73" cy="1546.09" r="212.24"/><path class="cls-22" d="M402.73,1546.09H615c0,116.44-95.81,212.25-212.24,212.25a212.26,212.26,0,0,1-119.13-36.59Z"/><path class="cls-22" d="M402.73,1546.09H615c0,116.44-95.81,212.25-212.24,212.25s-212.24-95.81-212.24-212.25a212.42,212.42,0,0,1,95.82-177.46Z"/><path class="cls-20" d="M2115.13,344.86h0a54.76,54.76,0,0,0,35.49,35.49h0a54.74,54.74,0,0,0-35.49,35.49h0a54.79,54.79,0,0,0-35.49-35.49h0a54.81,54.81,0,0,0,35.49-35.49Z"/><path class="cls-20" d="M2569.53,918.11h0A54.77,54.77,0,0,0,2605,953.6h0a54.77,54.77,0,0,0-35.48,35.49h0A54.81,54.81,0,0,0,2534,953.6h0a54.81,54.81,0,0,0,35.49-35.49Z"/><path class="cls-20" d="M1627.14,108.81h0a54.74,54.74,0,0,0,35.48,35.48h0a54.77,54.77,0,0,0-35.48,35.49h0a54.81,54.81,0,0,0-35.49-35.49h0a54.77,54.77,0,0,0,35.49-35.48Z"/><path class="cls-21" d="M2618.62,2132.57h0a54.79,54.79,0,0,0,35.49,35.49h0a54.79,54.79,0,0,0-35.49,35.49h0a54.81,54.81,0,0,0-35.49-35.49h0a54.81,54.81,0,0,0,35.49-35.49Z"/><path class="cls-20" d="M338.45,2514.34h0a54.81,54.81,0,0,0,35.49,35.49h0a54.76,54.76,0,0,0-35.49,35.49h0A54.73,54.73,0,0,0,303,2549.83h0a54.77,54.77,0,0,0,35.48-35.49Z"/><path class="cls-21" d="M545,344.86h0a54.81,54.81,0,0,0,35.49,35.49h0A54.79,54.79,0,0,0,545,415.84h0a54.76,54.76,0,0,0-35.49-35.49h0A54.79,54.79,0,0,0,545,344.86Z"/><path class="cls-21" d="M1333.14,517.22h0a54.81,54.81,0,0,0,35.49,35.49h0a54.76,54.76,0,0,0-35.49,35.49h0a54.72,54.72,0,0,0-35.49-35.49h0a54.76,54.76,0,0,0,35.49-35.49Z"/><path d="M1346,2320.83l-101.12,36.89,36.89-101.12,271.9-271.89a25.44,25.44,0,0,1,36,0l28.25,28.25a25.44,25.44,0,0,1,0,36Z"/><path class="cls-12" d="M1281.65,2257l-36.75,100.72L1345.62,2321a107.39,107.39,0,0,0-64-64Z"/><path class="cls-23" d="M1257.7,2322.63l-12.8,35.09,35.09-12.8a107,107,0,0,0-22.29-22.29Z"/></svg>