<svg id="Layer_1" data-name="Layer 1" xmlns="http://www.w3.org/2000/svg" xmlns:xlink="http://www.w3.org/1999/xlink" viewBox="0 0 512 512"><defs><style>.cls-1{fill:url(#linear-gradient);}.cls-2{fill:url(#linear-gradient-2);}.cls-3{fill:none;stroke:#231f20;stroke-miterlimit:10;}</style><linearGradient id="linear-gradient" x1="234.65" y1="474.95" x2="293.1" y2="123.99" gradientUnits="userSpaceOnUse"><stop offset="0" stop-color="#f26c6c"/><stop offset="0.62" stop-color="#f06c6c"/><stop offset="0.84" stop-color="#e96b6e"/><stop offset="0.99" stop-color="#de6a70"/><stop offset="1" stop-color="#dd6a70"/></linearGradient><linearGradient id="linear-gradient-2" x1="79.38" y1="115.29" x2="441.35" y2="30.73" xlink:href="#linear-gradient"/></defs><path class="cls-1" d="M286.81,492.49h-62.9c-6.79,0-12.33-5.86-12.33-13V238.52c0-11.78-.48-39.83,14.72-67.46a102.07,102.07,0,0,1,29.39-33.43c1.36-1,31.57-23.55,40.81-14.87,2,1.85,2.49,4.64,2.64,6.69v350C299.14,486.63,293.59,492.49,286.81,492.49Z"/><path class="cls-2" d="M441.21,95.85V33c0-6.78-5.85-12.33-13-12.33H187.25c-11.79,0-39.83-.48-67.47,14.72a102.18,102.18,0,0,0-33.43,29.4c-1,1.36-23.55,31.56-14.86,40.8,1.84,2,4.64,2.5,6.69,2.64h350C435.36,108.18,441.21,102.64,441.21,95.85Z"/><rect class="cls-3" x="3.43" y="2.79" width="504.8" height="504.8"/></svg>